<?xml version="1.0" encoding="utf-8"?>
<!-- Generator: Adobe Illustrator 24.1.2, SVG Export Plug-In . SVG Version: 6.00 Build 0)  -->
<svg version="1.1" baseProfile="basic" id="Layer_1"
	 xmlns="http://www.w3.org/2000/svg" xmlns:xlink="http://www.w3.org/1999/xlink" x="0px" y="0px" viewBox="0 0 1920 1080"
	 xml:space="preserve">
<style type="text/css">
	.st0{fill:#FFFFFF;}
	.st1{fill:#ED1C24;}
</style>
<g>
	<g>
		<path class="st0" d="M791.1,502.6c4.6,0,9.1,1.8,13.4,5.4c3.6,4.4,5.4,9,5.4,13.8c0,4.6-1.8,9.1-5.4,13.4
			c-4.4,3.6-8.8,5.4-13.4,5.4h-58.4v212.4c0,5.4-1.8,9.9-5.4,13.4c-3.8,3.8-8.3,5.8-13.4,5.8c-5.4,0-9.9-1.9-13.4-5.8
			c-3.8-3.6-5.8-8.1-5.8-13.4V540.6h-58c-5.4,0-9.9-1.8-13.4-5.4c-3.8-3.8-5.8-8.3-5.8-13.4c0-5.4,1.9-10,5.8-13.8
			c3.6-3.6,8.1-5.4,13.4-5.4H791.1z"/>
		<path class="st0" d="M828.8,753.1c0,4.6-1.8,9.1-5.4,13.4c-3.8,3.8-8.3,5.8-13.4,5.8c-5.4,0-9.9-1.9-13.4-5.8
			c-3.8-3.8-5.8-8.3-5.8-13.4v-77.2c0-26.6,9.5-49.4,28.4-68.4c18.7-18.7,41.4-28,68-28c4.9,0,9.5,1.8,13.8,5.4
			c3.6,4.4,5.4,8.8,5.4,13.4c0,4.6-1.8,9.1-5.4,13.4c-3.8,3.8-8.5,5.8-13.8,5.8c-16.1,0-29.8,5.6-41.1,16.9
			c-11.5,11.5-17.3,25.4-17.3,41.5V753.1z"/>
		<path class="st0" d="M1001.6,771.9c-26.4,0-49-9.5-68-28.4c-19-18.9-28.4-41.6-28.4-68c0-26.6,9.5-49.4,28.4-68.4
			c18.7-18.7,41.4-28,68-28c26.9,0,49.7,9.4,68.4,28c18.7,18.7,28,41.5,28,68.4c0,26.6-9.4,49.3-28,68
			C1051,762.4,1028.2,771.9,1001.6,771.9z M1001.6,617.1c-16.1,0-29.8,5.6-41.1,16.9c-11.5,11.5-17.3,25.4-17.3,41.5
			c0,15.9,5.8,29.6,17.3,41.1c11.3,11.5,25,17.3,41.1,17.3s30-5.8,41.5-17.3c11.3-12,16.9-25.7,16.9-41.1c0-15.6-5.6-29.4-16.9-41.5
			C1031,622.7,1017.2,617.1,1001.6,617.1z"/>
		<path class="st0" d="M1313.5,752.7c0,5.4-1.8,9.9-5.4,13.4c-3.8,3.8-8.4,5.8-13.8,5.8c-5.1,0-9.6-1.9-13.4-5.8
			c-3.6-3.6-5.4-8.1-5.4-13.4v-77.2c0-15.6-5.6-29.4-16.9-41.5c-12-11.3-25.9-16.9-41.5-16.9c-16.1,0-29.8,5.6-41.1,16.9
			c-11.5,11.5-17.3,25.4-17.3,41.5v77.2c0,5.4-1.8,9.9-5.4,13.4c-3.8,3.8-8.4,5.8-13.8,5.8c-5.1,0-9.6-1.9-13.4-5.8
			c-3.6-3.6-5.4-8.1-5.4-13.4v-77.2c0-26.6,9.5-49.4,28.4-68.4c18.7-18.7,41.4-28,68-28c26.6,0,49.3,9.4,68,28
			c18.9,19,28.4,41.7,28.4,68.4V752.7z"/>
		<path class="st0" d="M1437.9,503.4c21.2,0.8,38.9,8.6,53,23.4c14.6,14.9,21.9,32.5,21.9,53c0,20-6.9,37.3-20.7,51.9
			c-13.8,14.6-31.4,23-52.6,25.4c-0.3,0.3-22.2,0.4-65.7,0.4v94.9c0,5.4-1.9,9.9-5.8,13.4c-3.8,3.8-8.3,5.8-13.4,5.8
			c-5.4,0-9.9-1.9-13.4-5.8c-3.8-3.6-5.8-8.1-5.8-13.4V522.6c0-5.4,1.9-10,5.8-13.8c3.6-3.6,8.1-5.4,13.4-5.4H1437.9z M1434.9,619
			c11,0,20.4-3.8,28-11.5c7.4-7.4,11.4-16.6,11.9-27.7c-0.5-10.8-4.5-19.8-11.9-27.3c-7.2-7.2-16.5-10.8-28-10.8h-61.1V619H1434.9z"
			/>
		<path class="st0" d="M1703.7,752.3c0,5.6-1.8,10.2-5.4,13.8c-3.6,3.6-8.2,5.4-13.8,5.4c-3.6,0-7.6-1.8-11.9-5.4
			c-4.4-4.4-6.5-9-6.5-13.8c-15.9,12.8-34.8,19.2-56.8,19.2c-27.1,0-50.1-9-68.8-26.9c-19-18.2-28.4-40.7-28.4-67.6
			s9.5-49.8,28.4-68.8c18.9-19,41.9-28.4,68.8-28.4c26.9,0,49.4,9.5,67.6,28.4c17.9,18.7,26.9,41.6,26.9,68.8V752.3z M1609.3,733.9
			c16.1,0,29.7-5.5,40.7-16.5c10.8-10.8,16.1-24.2,16.1-40.3c0-16.4-5.4-30.3-16.1-41.9c-11-11.8-24.6-17.7-40.7-17.7
			s-30.1,5.9-41.9,17.7c-11.8,11.8-17.7,25.7-17.7,41.9c0,15.9,5.9,29.3,17.7,40.3C1578.4,728.4,1592.4,733.9,1609.3,733.9z"/>
		<path class="st0" d="M1882,502.2c0-4.6,1.8-9.1,5.4-13.4c4.4-3.6,8.8-5.4,13.4-5.4c4.9,0,9.5,1.8,13.8,5.4
			c3.6,4.4,5.4,8.8,5.4,13.4v172.5c0,26.4-9.5,49-28.4,68c-19,19-41.6,28.4-68,28.4c-26.6,0-49.4-9.5-68.4-28.4
			c-18.7-18.7-28-41.4-28-68c0-26.9,9.3-49.7,28-68.4c18.7-18.7,41.5-28,68.4-28c21.8,0,41.2,6.5,58.4,19.6V502.2z M1882,674.3
			c0-15.4-5.6-29.1-16.9-41.1c-12-11.3-25.9-16.9-41.5-16.9c-16.1,0-29.8,5.6-41.1,16.9c-11.5,11.5-17.3,25.4-17.3,41.5
			c0,15.9,5.8,29.6,17.3,41.1c11.3,11.5,25,17.3,41.1,17.3s30-5.8,41.5-17.3c11.3-11.3,16.9-25,16.9-41.1V674.3z"/>
	</g>
	<path class="st1" d="M247.3,759.8c-1.8,0-3.6-0.3-5.3-1c-5.7-2.2-9.4-7.6-9.4-13.7V484.6L6.6,334.7c-5.4-3.6-7.8-10.3-6-16.5
		c1.9-6.2,7.6-10.5,14.1-10.5h618.4c5.8,0,11.1,3.4,13.4,8.8c2.4,5.3,1.3,11.5-2.6,15.8L532.1,455.2c-5.5,6-14.8,6.4-20.8,1
		c-6-5.5-6.4-14.8-1-20.8l89.4-98.2H63.5l191.9,127.3c4.1,2.7,6.6,7.3,6.6,12.3v230.5l80.8-88.6V422.3c0-5.6,3.2-10.7,8.3-13.2
		c5-2.5,11.1-1.8,15.5,1.6l107.7,84c3.2,2.5,5.3,6.3,5.6,10.4c0.3,4.1-1,8.1-3.8,11.1L372.2,630v115.1c0,8.1-6.6,14.7-14.7,14.7
		s-14.7-6.6-14.7-14.7v-82.9L258.1,755C255.3,758.1,251.3,759.8,247.3,759.8z M372.2,452.4v134l71.4-78.3L372.2,452.4z"/>
</g>
</svg>
