<?xml version="1.0" encoding="UTF-8"?>
<svg version="1.1" xmlns="http://www.w3.org/2000/svg" width="204" height="204">
<path d="M0 0 C20.96176519 17.29758261 35.56032527 40.08967299 39.125 67.375 C41.16569277 97.0303654 35.69623759 123.41104796 16.453125 146.73046875 C-1.26722564 166.85912208 -24.73704943 181.71398046 -52.08935547 183.59619141 C-82.85768796 184.64944095 -109.14556815 178.28003982 -132.36962891 157.00585938 C-151.38980071 139.1733293 -164.30619195 115.23871363 -165.2109375 88.80859375 C-165.61902328 57.36591897 -157.71801145 31.86405946 -135.54223633 8.75634766 C-99.60062439 -27.80543774 -40.46494156 -31.05300104 0 0 Z " fill="#F9080C" transform="translate(164.875,20.625)"/>
<path d="M0 0 C5.5595598 0.39845519 10.87416946 1.55461996 16.28125 2.86328125 C17.46793274 3.14535934 17.46793274 3.14535934 18.67858887 3.43313599 C21.28687911 4.05487666 23.8934871 4.68335295 26.5 5.3125 C28.33852682 5.75339851 30.1770688 6.19423379 32.015625 6.63500977 C46.69471101 10.16416165 61.35090929 13.78608247 76 17.4375 C77.03165283 17.69407379 78.06330566 17.95064758 79.1262207 18.21499634 C82.08485538 18.95172947 85.04257639 19.69201575 88 20.43359375 C88.86508179 20.64887726 89.73016357 20.86416077 90.62145996 21.08596802 C101.93362288 23.93524422 110.49401896 27.03226521 120 34 C120.98484375 34.70125 121.9696875 35.4025 122.984375 36.125 C129.82630774 41.22745832 129.82630774 41.22745832 130.5234375 44.328125 C129.80720525 47.98411648 127.99102602 50.57884684 125.875 53.5625 C125.43559082 54.2016333 124.99618164 54.8407666 124.54345703 55.49926758 C123.04173372 57.67534479 121.52196352 59.83803604 120 62 C118.83295529 63.66900655 117.66630206 65.3382869 116.5 67.0078125 C114.68611634 69.60149203 112.87050748 72.19388929 111.05004883 74.78295898 C107.18921057 80.27643473 103.41795937 85.81429354 99.71875 91.41796875 C97.4821999 94.77787697 95.16710886 98.07868059 92.84375 101.37890625 C87.78618649 108.56878997 82.78298307 115.79026876 77.9375 123.125 C75.36269774 127.01274706 72.70537758 130.80989674 69.9375 134.5625 C66.56613935 139.1350738 63.50761322 143.84266534 60.54296875 148.6875 C57.86699149 152.69807857 57.86699149 152.69807857 56 154 C53.55712891 153.89819336 53.55712891 153.89819336 51 153 C49.57836914 150.73657227 49.57836914 150.73657227 48.47265625 147.75390625 C48.06031738 146.66480957 47.64797852 145.57571289 47.22314453 144.45361328 C46.81950684 143.3139209 46.41586914 142.17422852 46 141 C45.61312012 139.92862793 45.22624023 138.85725586 44.82763672 137.75341797 C43.67040808 134.49016161 42.54866794 131.21670592 41.4375 127.9375 C38.97692674 120.72576802 36.49039934 113.52977216 33.86889648 106.37475586 C32.82749079 103.52852006 31.81937908 100.67111073 30.8125 97.8125 C28.12979823 90.2777512 25.31050138 82.79565344 22.47387695 75.31762695 C20.04664502 68.88992714 17.72697065 62.43037368 15.45274353 55.94749451 C13.38396459 50.06042491 11.26379535 44.19292715 9.1328125 38.328125 C8.13406897 35.56828521 7.13622001 32.80812364 6.13867188 30.04785156 C5.45476284 28.16018356 4.76817671 26.27348361 4.07910156 24.38769531 C3.06877869 21.62045416 2.06861357 18.84972196 1.0703125 16.078125 C0.60638596 14.81878143 0.60638596 14.81878143 0.13308716 13.53399658 C-2.59951198 5.89267103 -2.59951198 5.89267103 -2 2 C-1.34 1.34 -0.68 0.68 0 0 Z " fill="#FCE9EE" transform="translate(47,37)"/>
<path d="M0 0 C5.70439758 0.40134567 11.15649797 1.62408431 16.703125 2.96875 C17.52751068 3.16514069 18.35189636 3.36153137 19.20126343 3.56387329 C21.88526807 4.20478145 24.56765972 4.85216456 27.25 5.5 C29.11242623 5.94662372 30.97489418 6.39307352 32.83740234 6.83935547 C50.58880305 11.10337709 68.30147099 15.52213786 86 20 C86 20.33 86 20.66 86 21 C83.93722893 20.85805236 81.87478969 20.71127784 79.8125 20.5625 C78.66394531 20.48128906 77.51539062 20.40007813 76.33203125 20.31640625 C73.48401829 20.04596188 70.78789518 19.62478253 68 19 C68.03122943 20.96756452 68.03122943 20.96756452 69 23 C71.99615946 24.3045656 71.99615946 24.3045656 75 25 C71.38193561 26.26802078 68.89287519 25.72628222 65.21484375 24.8125 C64.05637939 24.52906738 62.89791504 24.24563477 61.7043457 23.95361328 C60.46128662 23.6389209 59.21822754 23.32422852 57.9375 23 C56.66156982 22.68401855 55.38563965 22.36803711 54.07104492 22.04248047 C50.04361201 21.04297975 46.0215633 20.02281833 42 19 C40.67546439 18.66435385 39.35092021 18.3287415 38.02636719 17.99316406 C32.04038928 16.47410009 26.05834898 14.93945163 20.08203125 13.3828125 C18.67787964 13.01760498 18.67787964 13.01760498 17.24536133 12.64501953 C15 12 15 12 13 11 C17.77556747 16.88397078 22.59280413 22.7256622 27.5 28.5 C31.61866927 33.34679243 35.66600815 38.24530751 39.6796875 43.1796875 C42.75486401 46.9175283 45.8929888 50.60028399 49.03930664 54.27832031 C52.36556092 58.18712559 55.4824949 62.21076011 58.46484375 66.390625 C60.25498495 68.26731246 61.46856482 68.62821254 64 69 C63.505 70.98 63.505 70.98 63 73 C63.66 73 64.32 73 65 73 C65 73.66 65 74.32 65 75 C65.66 75 66.32 75 67 75 C67 74.34 67 73.68 67 73 C68.65 73.33 70.3 73.66 72 74 C71.67 74.66 71.34 75.32 71 76 C68.6859378 76.73075648 66.35171131 77.40138258 64 78 C64.01804687 79.29671631 64.03609375 80.59343262 64.0546875 81.92944336 C64.05282031 86.71173527 63.65663959 91.38016163 63.125 96.12890625 C63.03621582 96.96284409 62.94743164 97.79678192 62.85595703 98.6559906 C62.57510709 101.29199744 62.28825968 103.92729388 62 106.5625 C61.71192949 109.2012935 61.42537595 111.84020024 61.14404297 114.47972107 C60.96995682 116.11301287 60.79214413 117.7459136 60.60986328 119.37831116 C60.08702111 124.28242213 59.92153754 129.06772391 60 134 C60.40089844 133.39341553 60.80179688 132.78683105 61.21484375 132.16186523 C70.76797883 117.72520432 80.47866399 103.42047171 90.43945312 89.26074219 C91.76649205 87.33827966 93.02384335 85.39175822 94.265625 83.4140625 C96 81 96 81 99 80 C99.33 79.34 99.66 78.68 100 78 C100.66 78 101.32 78 102 78 C102.33 76.35 102.66 74.7 103 73 C104.65 72.67 106.3 72.34 108 72 C107.86512048 80.36253003 104.9876683 84.48987865 100 91 C98.53096704 93.09671067 97.07312099 95.20129203 95.625 97.3125 C94.85862087 98.42225361 94.09168859 99.53162541 93.32421875 100.640625 C92.94056152 101.19556641 92.5569043 101.75050781 92.16162109 102.32226562 C91.01240229 103.98208732 89.8601926 105.63979052 88.70703125 107.296875 C85.06367097 112.53930046 81.45660672 117.79822714 77.9375 123.125 C75.36269774 127.01274706 72.70537758 130.80989674 69.9375 134.5625 C66.56613935 139.1350738 63.50761322 143.84266534 60.54296875 148.6875 C57.86699149 152.69807857 57.86699149 152.69807857 56 154 C53.55712891 153.89819336 53.55712891 153.89819336 51 153 C49.57836914 150.73657227 49.57836914 150.73657227 48.47265625 147.75390625 C48.06031738 146.66480957 47.64797852 145.57571289 47.22314453 144.45361328 C46.81950684 143.3139209 46.41586914 142.17422852 46 141 C45.61312012 139.92862793 45.22624023 138.85725586 44.82763672 137.75341797 C43.67040808 134.49016161 42.54866794 131.21670592 41.4375 127.9375 C38.97692674 120.72576802 36.49039934 113.52977216 33.86889648 106.37475586 C32.82749079 103.52852006 31.81937908 100.67111073 30.8125 97.8125 C28.12979823 90.2777512 25.31050138 82.79565344 22.47387695 75.31762695 C20.04664502 68.88992714 17.72697065 62.43037368 15.45274353 55.94749451 C13.38396459 50.06042491 11.26379535 44.19292715 9.1328125 38.328125 C8.13406897 35.56828521 7.13622001 32.80812364 6.13867188 30.04785156 C5.45476284 28.16018356 4.76817671 26.27348361 4.07910156 24.38769531 C3.06877869 21.62045416 2.06861357 18.84972196 1.0703125 16.078125 C0.60638596 14.81878143 0.60638596 14.81878143 0.13308716 13.53399658 C-2.59951198 5.89267103 -2.59951198 5.89267103 -2 2 C-1.34 1.34 -0.68 0.68 0 0 Z " fill="#FAE0DF" transform="translate(47,37)"/>
<path d="M0 0 C1.31871094 0.31130859 1.31871094 0.31130859 2.6640625 0.62890625 C3.98435752 0.94017833 5.30467216 1.25136719 6.625 1.5625 C7.37007813 1.73813477 8.11515625 1.91376953 8.8828125 2.09472656 C13.8027229 3.25269598 18.72469844 4.4013845 23.6484375 5.54296875 C38.90386219 9.0834663 54.13679822 12.70344295 69.34960938 16.42285156 C70.02487167 16.58759979 70.70013397 16.75234802 71.39585876 16.92208862 C73.2238426 17.36821997 75.05150825 17.81565449 76.87915039 18.26318359 C79.57832799 18.90044543 82.27663599 19.47746629 85 20 C83.66000502 23.006818 82.20154709 24.99762609 79.8125 27.25 C77.2425351 29.74015232 74.83113126 32.28473198 72.5 35 C69.72002592 38.22675563 66.79509902 41.22813145 63.7578125 44.2109375 C61.26494528 46.74812236 58.96588705 49.43941096 56.64453125 52.1328125 C54.52869105 54.53512038 52.2975339 56.77208834 50 59 C46.23618138 57.49278852 44.41536518 55.35083069 41.9375 52.1875 C41.14988281 51.19878906 40.36226562 50.21007812 39.55078125 49.19140625 C39.13521973 48.66820801 38.7196582 48.14500977 38.29150391 47.60595703 C36.11858468 44.90397921 33.87158672 42.26576673 31.625 39.625 C31.16552979 39.08335205 30.70605957 38.5417041 30.23266602 37.98364258 C28.8226566 36.32167945 27.4114973 34.66069959 26 33 C19.93873228 25.86860501 13.91433596 18.71651552 8.015625 11.44921875 C6.19661269 9.23890728 4.33134726 7.08356524 2.4375 4.9375 C0 2 0 2 0 0 Z " fill="#F8080C" transform="translate(60,48)"/>
<path d="M0 0 C4.68886012 3.51664509 8.07571134 7.446827 11.66796875 12.0625 C14.34148908 15.4301504 17.1259409 18.68512876 19.9375 21.9375 C25.06039162 27.87778065 30.05939398 33.90688371 35 40 C36.5823448 41.93830742 38.16567404 43.8758116 39.75 45.8125 C40.44609375 46.66457031 41.1421875 47.51664063 41.859375 48.39453125 C44.00141517 51.08306708 44.00141517 51.08306708 46.63549805 53.6652832 C49.07986568 56.61983042 49.49028312 58.88428212 49.21446228 62.77627563 C49.13466629 63.49721405 49.0548703 64.21815247 48.97265625 64.9609375 C48.90796646 65.73577484 48.84327667 66.51061218 48.77662659 67.30892944 C48.55057215 69.87694716 48.27962737 72.43728973 48 75 C47.90708679 75.89706665 47.81417358 76.7941333 47.71844482 77.71838379 C47.02586805 84.36238574 46.24097881 90.99364391 45.4375 97.625 C45.20065982 99.61452244 44.96432896 101.60410559 44.72851562 103.59375 C44.1581885 108.39655046 43.58106057 113.1984868 43 118 C40.92566461 114.88849691 39.77752464 112.04750019 38.4609375 108.55078125 C38.21910736 107.90992081 37.97727722 107.26906036 37.7281189 106.60877991 C36.93907211 104.51173912 36.15657959 102.41233434 35.375 100.3125 C35.10610962 99.59370667 34.83721924 98.87491333 34.56018066 98.13433838 C30.76275026 87.97444745 27.16782461 77.76833263 23.79614258 67.45825195 C18.71205559 51.93417112 12.90635256 36.66361146 7.14477539 21.38085938 C6.09243468 18.58874825 5.04475312 15.79495869 4 13 C3.61908203 11.98341309 3.23816406 10.96682617 2.84570312 9.91943359 C2.47896484 8.9289502 2.11222656 7.9384668 1.734375 6.91796875 C1.40147461 6.02231201 1.06857422 5.12665527 0.72558594 4.20385742 C0 2 0 2 0 0 Z " fill="#F6090C" transform="translate(56,55)"/>
<path d="M0 0 C-3.40170939 7.11716867 -7.95804615 13.66203936 -12.625 20 C-20.33818211 30.4752359 -27.51695175 41.33638308 -34.81640625 52.1015625 C-35.2336647 52.71683304 -35.65092316 53.33210358 -36.08082581 53.96601868 C-38.15133179 57.01933002 -40.22086582 60.07329023 -42.28833008 63.12866211 C-45.84264957 68.37854236 -49.40684349 73.62183236 -53.0078125 78.83984375 C-53.56355957 79.64671631 -54.11930664 80.45358887 -54.69189453 81.28491211 C-55.12356934 81.85089111 -55.55524414 82.41687012 -56 83 C-56.33 83 -56.66 83 -57 83 C-57.08685099 73.04342819 -56.53194096 63.17603547 -55.74267578 53.25268555 C-55.58090068 51.04268139 -55.44774203 48.83039619 -55.34326172 46.61694336 C-54.47965174 28.81786252 -54.47965174 28.81786252 -50.51522827 24.31271362 C-46.77012384 21.53108058 -42.59036414 20.11510707 -38.17254639 18.73788452 C-34.67347854 17.54945972 -31.51209399 15.79646857 -28.26953125 14.04296875 C-27.02402625 13.39669358 -25.77728501 12.75279513 -24.52929688 12.11132812 C-23.91820068 11.79494385 -23.30710449 11.47855957 -22.67749023 11.15258789 C-20.77495812 10.16807297 -18.87091155 9.18652816 -16.96679688 8.20507812 C-15.73428407 7.56788419 -14.50185872 6.93052105 -13.26953125 6.29296875 C-12.18260986 5.7311792 -11.09568848 5.16938965 -9.97583008 4.59057617 C-8.02926742 3.55014171 -6.11195983 2.45250713 -4.2331543 1.29418945 C-2 0 -2 0 0 0 Z " fill="#F6090C" transform="translate(163,89)"/>
<path d="M0 0 C-0.13493114 8.36573066 -3.01781774 12.48625801 -8 19 C-9.6070257 21.27549437 -11.17802011 23.57520376 -12.75 25.875 C-14.16013897 27.92118067 -15.57604343 29.96341096 -17 32 C-17.52078125 32.76570313 -18.0415625 33.53140625 -18.578125 34.3203125 C-20 36 -20 36 -23 37 C-23.33 37.66 -23.66 38.32 -24 39 C-24.66666667 40.33333333 -25.33333333 41.66666667 -26 43 C-26.99 43 -27.98 43 -29 43 C-29.12375 43.969375 -29.2475 44.93875 -29.375 45.9375 C-29.58125 46.948125 -29.7875 47.95875 -30 49 C-30.99 49.495 -30.99 49.495 -32 50 C-32.45375 50.763125 -32.9075 51.52625 -33.375 52.3125 C-35.70408312 56.16444517 -37.68787779 58.56262593 -42 60 C-42.66 59.67 -43.32 59.34 -44 59 C-43.45327139 54.88131117 -42.22437743 52.57419956 -39.6875 49.3125 C-35.95961063 44.36202326 -32.47804973 39.29571014 -29.0625 34.125 C-24.69707339 27.53031668 -20.265775 20.99102899 -15.7421875 14.50390625 C-14.47509628 12.68281775 -13.23062004 10.84593006 -12 9 C-11.01 8.67 -10.02 8.34 -9 8 C-8.67 7.34 -8.34 6.68 -8 6 C-7.34 6 -6.68 6 -6 6 C-5.67 4.35 -5.34 2.7 -5 1 C-2 0 -2 0 0 0 Z " fill="#FBF6F5" transform="translate(155,109)"/>
<path d="M0 0 C4.68185126 3.51138844 8.06589819 7.43379883 11.65234375 12.04296875 C14.89265487 16.12435897 18.29481384 20.05755196 21.69970703 24.00170898 C24.83747697 27.63774469 27.93524341 31.30212184 31 35 C30.67 35.66 30.34 36.32 30 37 C28.515 36.505 28.515 36.505 27 36 C27.33 37.65 27.66 39.3 28 41 C28.66 41 29.32 41 30 41 C30 41.66 30 42.32 30 43 C28.35 42.67 26.7 42.34 25 42 C25 41.01 25 40.02 25 39 C24.34 39 23.68 39 23 39 C23.04125 39.78375 23.0825 40.5675 23.125 41.375 C23 44 23 44 21 46 C20.74996036 49.54178598 20.74996036 49.54178598 21 53 C21.495 53.495 21.495 53.495 22 54 C22.04063832 55.66617115 22.042721 57.33388095 22 59 C19.03635857 56.03635857 18.24098335 52.27353589 16.9375 48.375 C13.85341841 39.34843997 10.57098783 30.40971493 7.19702148 21.48779297 C5.3618567 16.63343278 3.53227294 11.77700756 1.73046875 6.91015625 C1.23196411 5.56836304 1.23196411 5.56836304 0.72338867 4.19946289 C0 2 0 2 0 0 Z " fill="#F70910" transform="translate(56,55)"/>
<path d="M0 0 C4.93054827 2.71683272 9.46284362 5.66657898 14 9 C11.27313082 12.29244204 7.64876537 13.82007694 3.875 15.625 C-2.91860358 18.93639201 -9.60617532 22.40629583 -16.23876953 26.02978516 C-20.08315098 28.10026581 -23.79017286 29.754101 -28 31 C-23.66935012 25.86861362 -19.18123684 20.93496196 -14.5625 16.0625 C-9.58489921 10.80978105 -4.72774577 5.47936887 0 0 Z " fill="#EA100D" transform="translate(151,71)"/>
<path d="M0 0 C0.66 0 1.32 0 2 0 C5.19198847 7.52154729 7.69138424 15.16544226 10 23 C11.32 21.68 12.64 20.36 14 19 C14 22.63 14 26.26 14 30 C14.66 30.33 15.32 30.66 16 31 C16 31.66 16 32.32 16 33 C16.99 32.34 17.98 31.68 19 31 C20.32 31 21.64 31 23 31 C22.98839844 30.37996094 22.97679688 29.75992188 22.96484375 29.12109375 C22.88246981 21.03667944 23.39110081 13.05704105 24 5 C24.66 5 25.32 5 26 5 C26.14533356 11.88823385 25.74706073 18.54863166 24.90625 25.3828125 C24.79526978 26.32309296 24.68428955 27.26337341 24.56994629 28.23214722 C24.21874171 31.19711009 23.85951711 34.16103481 23.5 37.125 C23.25858066 39.15097812 23.01769037 41.17701935 22.77734375 43.203125 C22.19100308 48.13616669 21.59747426 53.06829491 21 58 C18.90639262 54.85958893 17.75278697 51.97619366 16.42578125 48.4453125 C16.18085434 47.79534302 15.93592743 47.14537354 15.68357849 46.47570801 C14.88861562 44.36049716 14.10007019 42.24297358 13.3125 40.125 C13.04465698 39.40801941 12.77681396 38.69103882 12.50085449 37.95233154 C9.11707701 28.88826143 5.81257197 19.80364774 2.75 10.625 C2.46294189 9.76535645 2.17588379 8.90571289 1.88012695 8.02001953 C0 2.27303661 0 2.27303661 0 0 Z " fill="#E81114" transform="translate(78,115)"/>
<path d="M0 0 C-3.89034773 8.13951394 -9.27800369 15.46514814 -14.6171875 22.69921875 C-17.75694561 27.00363692 -20.74572046 31.41304681 -23.75 35.8125 C-24.30510254 36.62525391 -24.86020508 37.43800781 -25.43212891 38.27539062 C-28.31227555 42.50111531 -31.17282681 46.738654 -34 51 C-35.76462683 47.91190305 -36 46.76687864 -36 43 C-34.68 43 -33.36 43 -32 43 C-31.67 42.34 -31.34 41.68 -31 41 C-31.99 41 -32.98 41 -34 41 C-34 39.68 -34 38.36 -34 37 C-34.66 37 -35.32 37 -36 37 C-36 35.68 -36 34.36 -36 33 C-34.68 33.66 -33.36 34.32 -32 35 C-32 35.66 -32 36.32 -32 37 C-31.34 37 -30.68 37 -30 37 C-30 37.66 -30 38.32 -30 39 C-26.39345961 36.59563974 -26.14547068 35.05320393 -25 31 C-24.34 31 -23.68 31 -23 31 C-23.66 30.34 -24.32 29.68 -25 29 C-25.66 29.33 -26.32 29.66 -27 30 C-27.12375 29.030625 -27.2475 28.06125 -27.375 27.0625 C-27.58125 26.051875 -27.7875 25.04125 -28 24 C-28.66 23.67 -29.32 23.34 -30 23 C-25.5203607 19.61295565 -22.64763873 18.76025906 -17 18 C-16.34 17.01 -15.68 16.02 -15 15 C-13.66666667 14.66666667 -12.33333333 14.33333333 -11 14 C-8.7226499 11.18490007 -8.7226499 11.18490007 -9 8 C-10.32 7.34 -11.64 6.68 -13 6 C-11.21118264 4.99491199 -9.41885304 3.99607264 -7.625 3 C-6.62726563 2.443125 -5.62953125 1.88625 -4.6015625 1.3125 C-2 0 -2 0 0 0 Z " fill="#F20C12" transform="translate(163,89)"/>
<path d="M0 0 C0.33 0 0.66 0 1 0 C1.33 3.3 1.66 6.6 2 10 C3.32 9.34 4.64 8.68 6 8 C5.67 16.25 5.34 24.5 5 33 C6.32 31.35 7.64 29.7 9 28 C9.78375 28.165 10.5675 28.33 11.375 28.5 C13.88208039 29.0623707 13.88208039 29.0623707 16 29 C16.268125 28.46375 16.53625 27.9275 16.8125 27.375 C17.204375 26.59125 17.59625 25.8075 18 25 C18.495 23.989375 18.99 22.97875 19.5 21.9375 C21 19 21 19 23 16 C23.33 15.34 23.66 14.68 24 14 C24.99 14 25.98 14 27 14 C27.2165625 12.824375 27.2165625 12.824375 27.4375 11.625 C28 9 28 9 29 7 C29.99 7 30.98 7 32 7 C30.50808786 11.29927371 28.23982512 14.81702736 25.625 18.5 C25.23828125 19.05558594 24.8515625 19.61117187 24.453125 20.18359375 C22.65608951 22.74647993 20.80974981 25.2357448 18.84375 27.671875 C17.27122219 29.65752452 16.04961424 31.51922001 14.875 33.75 C13 37 13 37 11 38 C11 36.68 11 35.36 11 34 C10.54625 34.495 10.0925 34.99 9.625 35.5 C8 37 8 37 6 37 C5.67 37.66 5.34 38.32 5 39 C2.52580611 36.52580611 2.64340659 35.41969876 2.375 32 C2.30023438 31.113125 2.22546875 30.22625 2.1484375 29.3125 C2.05630052 27.87710277 2 26.43835129 2 25 C1.34 24.67 0.68 24.34 0 24 C0.061875 25.299375 0.061875 25.299375 0.125 26.625 C-0.00457721 30.12358468 -0.76019656 32.74551597 -2 36 C-2.66 35.67 -3.32 35.34 -4 35 C-2.68 23.45 -1.36 11.9 0 0 Z " fill="#F8D1CA" transform="translate(102,138)"/>
<path d="M0 0 C32.7611397 2.24310506 32.7611397 2.24310506 43 9 C42.67 11.31 42.34 13.62 42 16 C41.505 15.01 41.505 15.01 41 14 C37.7 14 34.4 14 31 14 C31 13.01 31 12.02 31 11 C29.91138672 10.78537109 29.91138672 10.78537109 28.80078125 10.56640625 C27.06563703 10.2155054 25.33311823 9.85095791 23.60546875 9.46484375 C19.58501319 8.58800772 15.93454322 7.89243336 11.8125 8.125 C6.90748323 7.96417978 4.9297303 6.8871488 1 4 C0.30859375 1.859375 0.30859375 1.859375 0 0 Z " fill="#FAEEEE" transform="translate(115,56)"/>
<path d="M0 0 C2.73347208 3.23809789 4.01640425 6.38509891 5.375 10.3828125 C5.58560059 10.99712128 5.79620117 11.61143005 6.01318359 12.24435425 C6.68227971 14.20232219 7.34104644 16.16359864 8 18.125 C8.44208243 19.41948476 8.88478538 20.71375777 9.328125 22.0078125 C11.70011531 28.96241904 13.9620701 35.9397327 16 43 C15.01 43.495 15.01 43.495 14 44 C14 42.35 14 40.7 14 39 C13.34 39 12.68 39 12 39 C11.01 35.535 11.01 35.535 10 32 C9.67 34.64 9.34 37.28 9 40 C7.15378444 37.23067666 6.10231758 34.90265258 4.94140625 31.80859375 C4.55533203 30.78056641 4.16925781 29.75253906 3.77148438 28.69335938 C3.37251953 27.61892578 2.97355469 26.54449219 2.5625 25.4375 C1.96985352 23.86645508 1.96985352 23.86645508 1.36523438 22.26367188 C-1.00934072 15.90644836 -3.15015626 9.52955675 -5 3 C-3.68 3.33 -2.36 3.66 -1 4 C-0.67 2.68 -0.34 1.36 0 0 Z " fill="#FAC9C9" transform="translate(68,90)"/>
<path d="M0 0 C0.99 0.33 1.98 0.66 3 1 C2.95875 2.216875 2.9175 3.43375 2.875 4.6875 C2.86245492 8.21894127 3.40001783 10.80003566 5 14 C7.31 12.35 9.62 10.7 12 9 C10.79989105 15.60059921 8.60814929 21.00059275 4 26 C0.75 27.1875 0.75 27.1875 -2 27 C-5.02153065 23.97846935 -4.96666651 21.06267172 -5.09765625 16.88671875 C-5.08605469 15.83097656 -5.07445313 14.77523437 -5.0625 13.6875 C-5.05347656 12.61886719 -5.04445313 11.55023438 -5.03515625 10.44921875 C-5.02355469 9.64097656 -5.01195313 8.83273438 -5 8 C-4.67 9.32 -4.34 10.64 -4 12 C-3.34 12 -2.68 12 -2 12 C-2.061875 10.9790625 -2.061875 10.9790625 -2.125 9.9375 C-1.97450035 6.40075832 -1.05624147 3.36676967 0 0 Z " fill="#EDEDEB" transform="translate(102,162)"/>
<path d="M0 0 C1.63245649 2.44868473 2.49124201 4.08714604 3.41015625 6.7890625 C3.67328613 7.55436279 3.93641602 8.31966309 4.20751953 9.1081543 C4.48966309 9.93871338 4.77180664 10.76927246 5.0625 11.625 C5.68592347 13.41546017 6.30963595 15.20581972 6.93359375 16.99609375 C8.41338855 21.27049862 9.85368341 25.55685407 11.28515625 29.84765625 C12.06454092 32.12779677 12.84448072 34.40774762 13.625 36.6875 C13.984729 37.7923877 14.34445801 38.89727539 14.71508789 40.03564453 C15.24670532 41.57067627 15.24670532 41.57067627 15.7890625 43.13671875 C16.09537598 44.05155029 16.40168945 44.96638184 16.71728516 45.90893555 C17.84924983 48.27263243 17.84924983 48.27263243 20.63818359 48.80395508 C21.41758301 48.8686499 22.19698242 48.93334473 23 49 C26.56716899 44.66727419 29.70198782 40.12194956 32.8203125 35.46484375 C35.78546929 31.10726535 35.78546929 31.10726535 38 30 C36.125 34.75 36.125 34.75 35 37 C34.34 37 33.68 37 33 37 C32.7525 38.03125 32.505 39.0625 32.25 40.125 C31.08676389 44.0261932 29.78047108 46.9343524 27 50 C24.04083949 51.06815984 21.11652215 51.61376435 18 52 C16.06977435 49.73408293 15.05833721 48.35002328 14.5625 45.375 C14.24928429 42.82191056 14.24928429 42.82191056 11.9375 41.6875 C11.298125 41.460625 10.65875 41.23375 10 41 C10 39.68 10 38.36 10 37 C9.01 37 8.02 37 7 37 C7 35.68 7 34.36 7 33 C5.68 32.34 4.36 31.68 3 31 C3 29.35 3 27.7 3 26 C3.99 25.67 4.98 25.34 6 25 C5.38221953 22.39392608 4.75612789 19.79034303 4.125 17.1875 C3.95097656 16.44951172 3.77695313 15.71152344 3.59765625 14.95117188 C2.75507489 11.50282963 1.98714425 8.98071638 0 6 C-0.125 2.8125 -0.125 2.8125 0 0 Z " fill="#E01E24" transform="translate(80,141)"/>
<path d="M0 0 C1.31871094 0.31130859 1.31871094 0.31130859 2.6640625 0.62890625 C3.27741455 0.77344238 3.8907666 0.91797852 4.52270508 1.06689453 C5.95496786 1.40454329 7.38709135 1.74278332 8.8190918 2.08154297 C13.42668049 3.16869025 18.03758336 4.23982778 22.6529541 5.29350281 C25.36038389 5.91211369 28.06689825 6.534681 30.77337646 7.15744019 C32.12976973 7.4684537 33.48658187 7.7776462 34.84381104 8.08499146 C36.77845128 8.52333288 38.7115218 8.96858458 40.64453125 9.4140625 C41.77221924 9.6713916 42.89990723 9.9287207 44.06176758 10.19384766 C46.61533029 10.89445954 48.70199915 11.70835901 51 13 C44.08260854 12.517778 37.39135483 11.39242555 30.62304688 9.9284668 C26.806428 9.15022556 23.71264221 8.66101429 20 10 C19.01 11.485 19.01 11.485 18 13 C17.67 12.34 17.34 11.68 17 11 C14.47266765 10.34444881 14.47266765 10.34444881 12 10 C12.33 10.99 12.66 11.98 13 13 C13.639375 13.28875 14.27875 13.5775 14.9375 13.875 C17.76520044 15.41738206 18.0653792 16.98045587 19 20 C19.35858516 21.32676508 19.7018576 22.65835921 20 24 C16.29430504 21.21910062 13.43919961 18.3128594 10.5625 14.6875 C7.9145414 11.37533774 5.2505641 8.11052965 2.4375 4.9375 C0 2 0 2 0 0 Z " fill="#DD181D" transform="translate(60,48)"/>
<path d="M0 0 C1.70349609 0.25330078 1.70349609 0.25330078 3.44140625 0.51171875 C6.43712724 1.31240037 7.61810181 1.8585786 9.4375 4.3125 C9.4375 4.6425 9.4375 4.9725 9.4375 5.3125 C10.530625 5.291875 11.62375 5.27125 12.75 5.25 C16.4375 5.3125 16.4375 5.3125 19.4375 6.3125 C20.0975 4.9925 20.7575 3.6725 21.4375 2.3125 C33.14365034 9.42639522 33.14365034 9.42639522 37.4375 14.3125 C34.9625 13.8175 34.9625 13.8175 32.4375 13.3125 C31.9425 11.8275 31.9425 11.8275 31.4375 10.3125 C29.1275 9.9825 26.8175 9.6525 24.4375 9.3125 C24.4375 10.3025 24.4375 11.2925 24.4375 12.3125 C25.7575 12.9725 27.0775 13.6325 28.4375 14.3125 C27.7775 14.9725 27.1175 15.6325 26.4375 16.3125 C22.4775 13.6725 18.5175 11.0325 14.4375 8.3125 C10.54848131 11.47798033 6.93109465 14.71615256 3.4375 18.3125 C3.1075 16.9925 2.7775 15.6725 2.4375 14.3125 C3.7575 14.3125 5.0775 14.3125 6.4375 14.3125 C7.0975 12.6625 7.7575 11.0125 8.4375 9.3125 C6.7875 9.6425 5.1375 9.9725 3.4375 10.3125 C4.7575 8.3325 6.0775 6.3525 7.4375 4.3125 C6.49390625 4.23902344 6.49390625 4.23902344 5.53125 4.1640625 C-0.03163314 3.67814801 -5.18243052 2.80696374 -10.5625 1.3125 C-6.88583069 -1.09946734 -4.24735029 -0.68131558 0 0 Z " fill="#F9E0DE" transform="translate(137.5625,63.6875)"/>
<path d="M0 0 C4.58804105 0.61190808 9.07448667 1.39474102 13.58984375 2.41015625 C15.38325195 2.81137695 15.38325195 2.81137695 17.21289062 3.22070312 C19.05657227 3.63739258 19.05657227 3.63739258 20.9375 4.0625 C22.82178711 4.48499023 22.82178711 4.48499023 24.74414062 4.91601562 C27.8299754 5.60827514 30.91523126 6.30300832 34 7 C32.55129769 10.03683097 31.14084044 12.05765404 28.6875 14.375 C25.54073234 17.42301972 22.7458279 20.58851686 20 24 C18.90341064 20.71023192 19.20046862 19.28696233 20 16 C18.68 15.67 17.36 15.34 16 15 C16 14.01 16 13.02 16 12 C16.66 12 17.32 12 18 12 C18 11.34 18 10.68 18 10 C18.66 9.67 19.32 9.34 20 9 C19.01 8.67 18.02 8.34 17 8 C17 7.34 17 6.68 17 6 C16.34 6 15.68 6 15 6 C15 5.34 15 4.68 15 4 C14.41992188 3.93941406 13.83984375 3.87882812 13.2421875 3.81640625 C8.79907137 3.33983439 4.40094577 2.78991334 0 2 C0 1.34 0 0.68 0 0 Z " fill="#F00C0F" transform="translate(111,61)"/>
<path d="M0 0 C6.85155525 0.38064196 13.38817278 2.24786579 20 4 C20 5.32 20 6.64 20 8 C19.01 8.33 18.02 8.66 17 9 C17 9.66 17 10.32 17 11 C14.69 11 12.38 11 10 11 C9.67 11.66 9.34 12.32 9 13 C6.69 12.67 4.38 12.34 2 12 C1.896875 11.360625 1.79375 10.72125 1.6875 10.0625 C1.460625 9.381875 1.23375 8.70125 1 8 C0.01 7.67 -0.98 7.34 -2 7 C-2.125 4.625 -2.125 4.625 -2 2 C-1.34 1.34 -0.68 0.68 0 0 Z " fill="#F9F9F8" transform="translate(47,37)"/>
<path d="M0 0 C1.83508368 2.75262553 2.87496221 5.04592503 4.0234375 8.12109375 C4.405 9.14009766 4.7865625 10.15910156 5.1796875 11.20898438 C5.57414062 12.27439453 5.96859375 13.33980469 6.375 14.4375 C6.76171875 15.46810547 7.1484375 16.49871094 7.546875 17.56054688 C9.847568 23.73304369 12.00711373 29.93782928 14.06689453 36.19458008 C15.64811314 40.94857878 17.35570643 45.65709371 19.0625 50.3671875 C21 55.78427934 21 55.78427934 21 58 C20.01 58 19.02 58 18 58 C17.89042969 57.38511719 17.78085937 56.77023438 17.66796875 56.13671875 C17.50941406 55.32847656 17.35085937 54.52023438 17.1875 53.6875 C17.03667969 52.88699219 16.88585937 52.08648437 16.73046875 51.26171875 C15.91272611 48.72977764 14.93960341 47.76281664 13 46 C11.60359014 43.06018976 11 41.27763744 11 38 C10.34 38 9.68 38 9 38 C9 37.01 9 36.02 9 35 C7.35 35 5.7 35 4 35 C4 34.01 4 33.02 4 32 C5.32 32 6.64 32 8 32 C8 30.02 8 28.04 8 26 C7.01 26 6.02 26 5 26 C5 25.34 5 24.68 5 24 C4.34 23.67 3.68 23.34 3 23 C2.61866701 21.0085944 2.28674418 19.00720923 2 17 C1.67 16.34 1.34 15.68 1 15 C1.185625 14.443125 1.37125 13.88625 1.5625 13.3125 C2.20580546 9.91217112 0.99328669 7.27200323 0 4 C0 2.68 0 1.36 0 0 Z " fill="#DE1E1A" transform="translate(46,47)"/>
<path d="M0 0 C0.33 0 0.66 0 1 0 C1 7.59 1 15.18 1 23 C1.99 22.67 2.98 22.34 4 22 C4 19.36 4 16.72 4 14 C5.32 14 6.64 14 8 14 C8.33 13.01 8.66 12.02 9 11 C10.32 11 11.64 11 13 11 C13 10.34 13 9.68 13 9 C14.29233607 7.62689293 15.62437146 6.28965176 17 5 C17.66 5.33 18.32 5.66 19 6 C16.81450988 9.29300508 14.62622812 12.58414638 12.4375 15.875 C11.82841797 16.7928125 11.21933594 17.710625 10.59179688 18.65625 C7.4616265 23.35978644 4.3067927 28.04522211 1.09765625 32.6953125 C0.52668213 33.52305176 -0.04429199 34.35079102 -0.63256836 35.20361328 C-1.0838208 35.7964209 -1.53507324 36.38922852 -2 37 C-2.33 37 -2.66 37 -3 37 C-3.20752677 29.05345395 -2.39600308 21.32797758 -1.5 13.4375 C-1.35691406 12.14263672 -1.21382813 10.84777344 -1.06640625 9.51367188 C-0.71529163 6.3419365 -0.35971319 3.17076972 0 0 Z " fill="#D12023" transform="translate(109,135)"/>
<path d="M0 0 C4.68185126 3.51138844 8.06589819 7.43379883 11.65234375 12.04296875 C14.89265487 16.12435897 18.29481384 20.05755196 21.69970703 24.00170898 C24.83747697 27.63774469 27.93524341 31.30212184 31 35 C30.67 35.66 30.34 36.32 30 37 C29.24074219 36.14535156 28.48148438 35.29070312 27.69921875 34.41015625 C26.69561498 33.29399878 25.69169204 32.17812824 24.6875 31.0625 C24.18798828 30.49853516 23.68847656 29.93457031 23.17382812 29.35351562 C20.10128236 25.94080419 20.10128236 25.94080419 16 24 C16 23.34 16 22.68 16 22 C15.34 22 14.68 22 14 22 C13.67 22.66 13.34 23.32 13 24 C13 23.34 13 22.68 13 22 C12.34 22.33 11.68 22.66 11 23 C11 24.32 11 25.64 11 27 C10.34 27 9.68 27 9 27 C7.87160091 23.81369323 6.74790455 20.62574686 5.625 17.4375 C5.14933594 16.09461914 5.14933594 16.09461914 4.6640625 14.72460938 C2.94991849 9.85001235 1.35445622 4.98686155 0 0 Z " fill="#E61114" transform="translate(56,55)"/>
<path d="M0 0 C3.38235855 1.18679247 4.28229723 1.76250606 6.5625 4.25 C9.16165538 5.44027984 9.16165538 5.44027984 11.5625 6.25 C11.82468749 9.39624993 11.81004367 10.86837017 10.0625 13.5625 C9.5675 14.119375 9.0725 14.67625 8.5625 15.25 C7.2425 14.92 5.9225 14.59 4.5625 14.25 C4.5625 13.26 4.5625 12.27 4.5625 11.25 C1.44052522 12.5589572 1.44052522 12.5589572 -0.4375 15.25 C-2.50390625 15.6640625 -2.50390625 15.6640625 -5 15.875 C-5.82628906 15.94976562 -6.65257812 16.02453125 -7.50390625 16.1015625 C-8.46103516 16.17503906 -8.46103516 16.17503906 -9.4375 16.25 C-9.4375 15.59 -9.4375 14.93 -9.4375 14.25 C-7.78678604 13.22388051 -6.11779994 12.22691857 -4.4375 11.25 C-2.6020201 9.91621425 -2.6020201 9.91621425 -1.4375 8.25 C-1.4375 6.93 -1.4375 5.61 -1.4375 4.25 C-2.0975 3.92 -2.7575 3.59 -3.4375 3.25 C-3.4375 2.59 -3.4375 1.93 -3.4375 1.25 C-4.0975 0.92 -4.7575 0.59 -5.4375 0.25 C-3.4375 -0.75 -3.4375 -0.75 0 0 Z " fill="#F5E0DD" transform="translate(165.4375,72.75)"/>
<path d="M0 0 C3.0831351 1.19899698 6.06279492 2.47700477 9 4 C9 4.66 9 5.32 9 6 C9.99 6.33 10.98 6.66 12 7 C12.19916016 8.13888672 12.19916016 8.13888672 12.40234375 9.30078125 C12.57894531 10.29464844 12.75554687 11.28851563 12.9375 12.3125 C13.11152344 13.29863281 13.28554687 14.28476563 13.46484375 15.30078125 C13.95746847 18.08189213 13.95746847 18.08189213 15 21 C13.5625 24.1875 13.5625 24.1875 12 27 C11.01 27 10.02 27 9 27 C9 26.34 9 25.68 9 25 C8.01 25.33 7.02 25.66 6 26 C6 25.34 6 24.68 6 24 C5.34 24 4.68 24 4 24 C4 24.66 4 25.32 4 26 C3.34 26.33 2.68 26.66 2 27 C1.27840576 28.64363134 0.60648579 30.31050386 0 32 C-0.66 32 -1.32 32 -2 32 C-2.33 32.66 -2.66 33.32 -3 34 C-3 30.01717204 -1.4979159 28.44861887 0.75 25.1875 C1.79414063 23.66189453 1.79414063 23.66189453 2.859375 22.10546875 C4.29519313 20.02248442 5.76471382 17.96236246 7.265625 15.92578125 C9.09716234 12.83609326 9.78710762 11.49568384 9 8 C7.05108741 5.91701086 7.05108741 5.91701086 4.5 4.25 C2.99120872 3.17894446 1.48870364 2.09880507 0 1 C0 0.67 0 0.34 0 0 Z M15 11 C15.33 11.66 15.66 12.32 16 13 C15.67 13.66 15.34 14.32 15 15 C14.34 15 13.68 15 13 15 C13.66 13.68 14.32 12.36 15 11 Z " fill="#EF0A0A" transform="translate(167,71)"/>
<path d="M0 0 C-0.33 1.32 -0.66 2.64 -1 4 C-3.31 4.33 -5.62 4.66 -8 5 C-8 5.66 -8 6.32 -8 7 C-8.63808594 7.33773437 -9.27617187 7.67546875 -9.93359375 8.0234375 C-11.17302734 8.69246094 -11.17302734 8.69246094 -12.4375 9.375 C-13.26121094 9.81585938 -14.08492187 10.25671875 -14.93359375 10.7109375 C-17.13466578 11.83418559 -17.13466578 11.83418559 -18 14 C-20.0625 14.625 -20.0625 14.625 -22 15 C-21.67 16.65 -21.34 18.3 -21 20 C-21.66 20 -22.32 20 -23 20 C-23.33 19.01 -23.66 18.02 -24 17 C-26.31 17 -28.62 17 -31 17 C-31.33 18.32 -31.66 19.64 -32 21 C-33.98 21.33 -35.96 21.66 -38 22 C-37.97679688 22.77085938 -37.95359375 23.54171875 -37.9296875 24.3359375 C-37.91164063 25.33882812 -37.89359375 26.34171875 -37.875 27.375 C-37.85179688 28.37273437 -37.82859375 29.37046875 -37.8046875 30.3984375 C-38 33 -38 33 -40 35 C-40.57556275 29.61063975 -41.06190575 24.13235236 -39 19 C-34.92516031 15.53638626 -30.4992835 13.93024153 -25.54003906 12.04833984 C-20.72387318 10.06058357 -16.20136714 7.47984944 -11.625 5 C-9.82830692 4.03645342 -8.0290188 3.07772208 -6.2265625 2.125 C-5.45908691 1.71507813 -4.69161133 1.30515625 -3.90087891 0.8828125 C-2 0 -2 0 0 0 Z " fill="#E3171C" transform="translate(150,96)"/>
<path d="M0 0 C1.54238266 0.11583111 3.08390272 0.24316572 4.625 0.375 C5.91277344 0.47941406 5.91277344 0.47941406 7.2265625 0.5859375 C10 1 10 1 12.8046875 1.9453125 C16.6669051 3.2201276 20.49233477 3.8590553 24.5 4.5 C29.51914631 5.30271057 34.20362727 6.23930621 39 8 C39 8.66 39 9.32 39 10 C41.97 10.33 44.94 10.66 48 11 C48.33 10.01 48.66 9.02 49 8 C50.32303717 7.6278958 51.65737935 7.29369827 53 7 C53.33 6.34 53.66 5.68 54 5 C54.66 5 55.32 5 56 5 C55.649375 5.928125 55.29875 6.85625 54.9375 7.8125 C53.67617372 10.9802953 53.67617372 10.9802953 55 14 C55.63808594 14.04898438 56.27617188 14.09796875 56.93359375 14.1484375 C57.75988281 14.22320312 58.58617187 14.29796875 59.4375 14.375 C60.26121094 14.44460937 61.08492187 14.51421875 61.93359375 14.5859375 C62.95646484 14.79089844 62.95646484 14.79089844 64 15 C64.495 15.99 64.495 15.99 65 17 C55.39117085 14.91572104 45.81287026 12.7381031 36.265625 10.38671875 C34.43752192 9.93936354 32.60939679 9.49209841 30.78125 9.04492188 C27.9887571 8.36140478 25.19735215 7.67434256 22.40820312 6.97729492 C19.65483831 6.29061638 16.89822265 5.61866572 14.140625 4.94921875 C13.30936096 4.73786789 12.47809692 4.52651703 11.62164307 4.3087616 C7.06779692 3.2180767 3.64639217 2.81037788 -1 4 C-0.67 2.68 -0.34 1.36 0 0 Z " fill="#D22729" transform="translate(46,35)"/>
<path d="M0 0 C3.44429218 2.60552672 6.17228917 5.2121801 8.8125 8.625 C9.49441406 9.49253906 10.17632812 10.36007813 10.87890625 11.25390625 C12.31199461 13.10926742 13.73627737 14.97145853 15.15234375 16.83984375 C16.19068359 18.18755859 16.19068359 18.18755859 17.25 19.5625 C17.87390625 20.38878906 18.4978125 21.21507813 19.140625 22.06640625 C21.12801647 24.13312637 22.19836872 24.64669694 25 25 C25 25.66 25 26.32 25 27 C22.3125 26.9375 22.3125 26.9375 19 26 C17.00635346 23.85695876 15.48467893 21.51607093 14 19 C13.34 19.33 12.68 19.66 12 20 C12 20.66 12 21.32 12 22 C12.66 22.33 13.32 22.66 14 23 C13.01 23 12.02 23 11 23 C8.84375 20.76953125 8.84375 20.76953125 6.5 17.8125 C5.33984375 16.36810547 5.33984375 16.36810547 4.15625 14.89453125 C2.24969158 12.3351838 0.57965766 9.76946391 -1 7 C-0.34 7 0.32 7 1 7 C0.67 4.69 0.34 2.38 0 0 Z " fill="#F9D8DC" transform="translate(86,81)"/>
<path d="M0 0 C10.03634737 2.19684492 20.05212014 4.42525462 30 7 C30 7.33 30 7.66 30 8 C27.93722893 7.85805236 25.87478969 7.71127784 23.8125 7.5625 C22.66394531 7.48128906 21.51539062 7.40007813 20.33203125 7.31640625 C17.48401829 7.04596188 14.78789518 6.62478253 12 6 C12.03122943 7.96756452 12.03122943 7.96756452 13 10 C15.99615946 11.3045656 15.99615946 11.3045656 19 12 C15.36171944 13.28253196 12.83700957 12.70925239 9.140625 11.78515625 C7.46806641 11.37426758 7.46806641 11.37426758 5.76171875 10.95507812 C4.60285156 10.66052734 3.44398437 10.36597656 2.25 10.0625 C0.48849609 9.62647461 0.48849609 9.62647461 -1.30859375 9.18164062 C-4.20790223 8.46270641 -7.10478324 7.73520767 -10 7 C-10 6.67 -10 6.34 -10 6 C-5.71 6 -1.42 6 3 6 C2.34 4.68 1.68 3.36 1 2 C0.67 1.34 0.34 0.68 0 0 Z " fill="#FCD1D1" transform="translate(103,50)"/>
<path d="M0 0 C0.99 0 1.98 0 3 0 C3 1.65 3 3.3 3 5 C3.66 5 4.32 5 5 5 C5.33 3.35 5.66 1.7 6 0 C6.66 0 7.32 0 8 0 C7.67 5.28 7.34 10.56 7 16 C4.69 16.66 2.38 17.32 0 18 C-1.546875 16.9453125 -1.546875 16.9453125 -3 15 C-2.890625 11.6796875 -2.890625 11.6796875 -2.25 7.875 C-2.04890625 6.61429688 -1.8478125 5.35359375 -1.640625 4.0546875 C-1 1 -1 1 0 0 Z " fill="#F80715" transform="translate(94,130)"/>
<path d="M0 0 C2.9765625 2.6640625 2.9765625 2.6640625 3.1875 5.6875 C3.0946875 6.8321875 3.0946875 6.8321875 3 8 C3.66 8 4.32 8 5 8 C5.309375 8.639375 5.61875 9.27875 5.9375 9.9375 C6.8345163 11.93610821 6.8345163 11.93610821 8 13 C8.79425827 16.6424188 9.368884 20.32618656 10 24 C10.226875 25.134375 10.45375 26.26875 10.6875 27.4375 C10.99662315 29.97230982 10.82926546 31.60434423 10 34 C9.9175 33.21625 9.835 32.4325 9.75 31.625 C9.5025 30.75875 9.255 29.8925 9 29 C8.36964844 28.73960937 7.73929687 28.47921875 7.08984375 28.2109375 C4.0198059 26.43203706 3.79538348 24.33779207 2.8125 21 C1.63461229 16.90904085 1.63461229 16.90904085 0 13 C-0.07092842 10.7927077 -0.08415025 8.58332548 -0.0625 6.375 C-0.05347656 5.18648438 -0.04445313 3.99796875 -0.03515625 2.7734375 C-0.02355469 1.85820313 -0.01195313 0.94296875 0 0 Z " fill="#FAF0F0" transform="translate(77,121)"/>
<path d="M0 0 C1.65161581 0.75836443 3.29617138 1.53212076 4.9375 2.3125 C5.85402344 2.74175781 6.77054688 3.17101562 7.71484375 3.61328125 C10 5 10 5 11 8 C8.36 8.33 5.72 8.66 3 9 C3 9.66 3 10.32 3 11 C1.5682384 11.69937202 0.12932968 12.38412718 -1.3125 13.0625 C-2.11300781 13.44535156 -2.91351563 13.82820313 -3.73828125 14.22265625 C-6 15 -6 15 -9 14 C-9 13.01 -9 12.02 -9 11 C-8.01 10.34 -7.02 9.68 -6 9 C-5.67 8.01 -5.34 7.02 -5 6 C-3.44018962 3.89809159 -1.71637262 1.98042995 0 0 Z " fill="#F40A0F" transform="translate(151,74)"/>
<path d="M0 0 C0.33 0.66 0.66 1.32 1 2 C0.0625 4.625 0.0625 4.625 -1 7 C-1.66 7 -2.32 7 -3 7 C-3 7.99 -3 8.98 -3 10 C-1.68 10.66 -0.36 11.32 1 12 C1 11.34 1 10.68 1 10 C1.66 10.33 2.32 10.66 3 11 C0.03 15.29 -2.94 19.58 -6 24 C-7.04449911 20.86650268 -6.93423645 20.01031744 -6 17 C-7.65 17.33 -9.3 17.66 -11 18 C-11.33 19.65 -11.66 21.3 -12 23 C-12.66 23 -13.32 23 -14 23 C-14.33 23.99 -14.66 24.98 -15 26 C-15.66 25.67 -16.32 25.34 -17 25 C-12.56290062 18.29248873 -8.08414041 11.62846863 -3.4453125 5.05859375 C-2.27303102 3.38888472 -1.13166618 1.69749927 0 0 Z " fill="#FDE2DC" transform="translate(161,92)"/>
<path d="M0 0 C0.66 0.33 1.32 0.66 2 1 C1.83790039 1.71784668 1.67580078 2.43569336 1.50878906 3.17529297 C1.01519095 5.91566251 0.87470936 8.41519296 0.859375 11.1953125 C0.84003906 12.15824219 0.82070312 13.12117187 0.80078125 14.11328125 C0.7667988 16.12870221 0.74868797 18.14445049 0.74609375 20.16015625 C0.67712691 22.86438229 0.58110496 25.35724577 0 28 C-2.546875 30.1796875 -2.546875 30.1796875 -5 31 C-5.02705729 29.22925083 -5.04642195 27.45838289 -5.0625 25.6875 C-5.07410156 24.70136719 -5.08570312 23.71523437 -5.09765625 22.69921875 C-5 20 -5 20 -4 17 C-3.76843363 13.71089991 -3.61896959 10.42300698 -3.4765625 7.12890625 C-2.9752492 3.83749677 -2.22178267 2.41782232 0 0 Z " fill="#FBF2F6" transform="translate(108,118)"/>
<path d="M0 0 C3.0132707 3.45509925 4.31615804 7.26618093 5.6875 11.5625 C5.91244141 12.23474609 6.13738281 12.90699219 6.36914062 13.59960938 C7.32199622 16.5161005 8 18.91234191 8 22 C7.34 22 6.68 22 6 22 C5.67 19.36 5.34 16.72 5 14 C3.35 13.67 1.7 13.34 0 13 C0 13.66 0 14.32 0 15 C0.66 15 1.32 15 2 15 C2 16.65 2 18.3 2 20 C2.66 20.33 3.32 20.66 4 21 C4.4140625 23.06640625 4.4140625 23.06640625 4.625 25.5625 C4.69976562 26.38878906 4.77453125 27.21507813 4.8515625 28.06640625 C4.90054688 28.70449219 4.94953125 29.34257813 5 30 C3.05877581 27.08816371 2.13784964 24.75892873 1.0546875 21.45703125 C0.52294922 19.84731445 0.52294922 19.84731445 -0.01953125 18.20507812 C-0.38433594 17.08552734 -0.74914062 15.96597656 -1.125 14.8125 C-1.49753906 13.68134766 -1.87007813 12.55019531 -2.25390625 11.38476562 C-3.17332497 8.59114719 -4.08851441 5.79621484 -5 3 C-3.68 3.33 -2.36 3.66 -1 4 C-0.67 2.68 -0.34 1.36 0 0 Z " fill="#FAD1D2" transform="translate(68,90)"/>
<path d="M0 0 C0.99 1.32 1.98 2.64 3 4 C-0.55932203 12.6440678 -0.55932203 12.6440678 -3 16 C-3.99 16 -4.98 16 -6 16 C-6 16.66 -6 17.32 -6 18 C-7.65 17.67 -9.3 17.34 -11 17 C-10.67 15.68 -10.34 14.36 -10 13 C-9.34 13 -8.68 13 -8 13 C-7.7834375 11.824375 -7.7834375 11.824375 -7.5625 10.625 C-7 8 -7 8 -6 6 C-5.34 6 -4.68 6 -4 6 C-4 5.01 -4 4.02 -4 3 C-3.01 2.67 -2.02 2.34 -1 2 C-0.67 1.34 -0.34 0.68 0 0 Z " fill="#F7F6F4" transform="translate(168,86)"/>
<path d="M0 0 C0.33 0 0.66 0 1 0 C1.33 2.31 1.66 4.62 2 7 C0.68 6.67 -0.64 6.34 -2 6 C-2.2475 7.11375 -2.495 8.2275 -2.75 9.375 C-4 13 -4 13 -6.0625 14.0625 C-6.701875 14.371875 -7.34125 14.68125 -8 15 C-8.81584568 18.05908413 -8.81584568 18.05908413 -9 21 C-8.34 21 -7.68 21 -7 21 C-7.33 21.66 -7.66 22.32 -8 23 C-8.886875 23 -9.77375 23 -10.6875 23 C-14.808698 24.24413524 -15.1627156 25.41616288 -17.25 29.0625 C-17.72953125 29.98160156 -18.2090625 30.90070313 -18.703125 31.84765625 C-19.13109375 32.55792969 -19.5590625 33.26820313 -20 34 C-20.66 34 -21.32 34 -22 34 C-21.37331466 30.48092078 -19.9638602 28.25069543 -17.875 25.375 C-17.24335937 24.49585938 -16.61171875 23.61671875 -15.9609375 22.7109375 C-15.31382813 21.81632812 -14.66671875 20.92171875 -14 20 C-12.83022269 18.33551511 -11.66348456 16.66888962 -10.5 15 C-9.64535156 13.78183594 -9.64535156 13.78183594 -8.7734375 12.5390625 C-7.52174312 10.74698905 -6.27766117 8.94958696 -5.0390625 7.1484375 C-4.40742188 6.23320312 -3.77578125 5.31796875 -3.125 4.375 C-2.55007812 3.53710938 -1.97515625 2.69921875 -1.3828125 1.8359375 C-0.92648438 1.23007813 -0.47015625 0.62421875 0 0 Z " fill="#D52326" transform="translate(140,137)"/>
<path d="M0 0 C2.11169952 2.11169952 2.49562047 3.09699434 3.33203125 5.87890625 C3.57373047 6.63494141 3.81542969 7.39097656 4.06445312 8.16992188 C4.56323368 9.76523828 5.05023487 11.36428526 5.52539062 12.96679688 C6.22155205 15.10644262 6.88014323 17.04735486 8 19 C10.57630834 20.16947703 10.57630834 20.16947703 13 20 C16.56716899 15.66727419 19.70198782 11.12194956 22.8203125 6.46484375 C25.78546929 2.10726535 25.78546929 2.10726535 28 1 C26.125 5.75 26.125 5.75 25 8 C24.34 8 23.68 8 23 8 C22.7525 9.03125 22.505 10.0625 22.25 11.125 C21.08676389 15.0261932 19.78047108 17.9343524 17 21 C14.04083949 22.06815984 11.11652215 22.61376435 8 23 C4.46209597 19.30827405 4.40884117 15.90609405 4 11 C3.01 11 2.02 11 1 11 C0.67 7.37 0.34 3.74 0 0 Z " fill="#CF2425" transform="translate(90,170)"/>
<path d="M0 0 C1.98 0.66 3.96 1.32 6 2 C2.20517556 6.5127642 -1.70411505 10.90401053 -5.6875 15.25 C-6.40063354 16.02875488 -6.40063354 16.02875488 -7.12817383 16.82324219 C-9.37251358 19.26441216 -11.62726052 21.6828096 -14 24 C-15.32 23.34 -16.64 22.68 -18 22 C-16.68 21.67 -15.36 21.34 -14 21 C-13.814375 20.1028125 -13.814375 20.1028125 -13.625 19.1875 C-13 17 -13 17 -11 14 C-8.375 13.8125 -8.375 13.8125 -6 14 C-5.87625 13.443125 -5.7525 12.88625 -5.625 12.3125 C-4.45910982 7.99870632 -3.24063737 5.09333568 0 2 C0 1.34 0 0.68 0 0 Z " fill="#CF1B22" transform="translate(124,83)"/>
<path d="M0 0 C0.66 0.33 1.32 0.66 2 1 C-1.75 4 -1.75 4 -4 4 C-4 4.66 -4 5.32 -4 6 C-2.54052295 5.93993922 -1.08220728 5.8511311 0.375 5.75 C1.18710938 5.70359375 1.99921875 5.6571875 2.8359375 5.609375 C5.18307584 5.22003286 5.18307584 5.22003286 6.15625 3 C6.4346875 2.34 6.713125 1.68 7 1 C9.125 0.25 9.125 0.25 11 0 C11 1.32 11 2.64 11 4 C11.99 4.66 12.98 5.32 14 6 C12.68 7.32 11.36 8.64 10 10 C10 9.01 10 8.02 10 7 C9.34 6.34 8.68 5.68 8 5 C5.89179203 5.3185177 5.89179203 5.3185177 4 6 C4 6.99 4 7.98 4 9 C3.34 8.67 2.68 8.34 2 8 C2.33 7.34 2.66 6.68 3 6 C-1.95 8.475 -1.95 8.475 -7 11 C-7 9.68 -7 8.36 -7 7 C-8.65 7 -10.3 7 -12 7 C-8.44008172 4.03340143 -4.34777457 1.618652 0 0 Z " fill="#FDDAD6" transform="translate(160,83)"/>
<path d="M0 0 C-4.84316081 10.13302092 -11.78366851 21.29084947 -20 29 C-20.25 26.6875 -20.25 26.6875 -20 24 C-18.125 22.4375 -18.125 22.4375 -16 21 C-15.31513275 19.67592331 -14.65129797 18.34090759 -14 17 C-13.14194348 15.9648842 -12.26530356 14.9450144 -11.375 13.9375 C-8.68563893 11.24076887 -8.68563893 11.24076887 -9 8 C-10.32 7.34 -11.64 6.68 -13 6 C-11.21118264 4.99491199 -9.41885304 3.99607264 -7.625 3 C-6.62726563 2.443125 -5.62953125 1.88625 -4.6015625 1.3125 C-2 0 -2 0 0 0 Z " fill="#C02E2E" transform="translate(163,89)"/>
<path d="M0 0 C2.475 0.99 2.475 0.99 5 2 C4.34 3.65 3.68 5.3 3 7 C2.01 6.67 1.02 6.34 0 6 C-0.67958603 8.39719432 -0.67958603 8.39719432 -1 11 C-0.34 11.66 0.32 12.32 1 13 C-0.65 12.67 -2.3 12.34 -4 12 C-4 12.66 -4 13.32 -4 14 C-4.66 14 -5.32 14 -6 14 C-6 13.34 -6 12.68 -6 12 C-6.66 12 -7.32 12 -8 12 C-6.64994369 6.32976351 -4.1842771 3.82042691 0 0 Z " fill="#FBF7F6" transform="translate(118,98)"/>
<path d="M0 0 C0.66 0.33 1.32 0.66 2 1 C-3.445 9.415 -3.445 9.415 -9 18 C-10.32 17.67 -11.64 17.34 -13 17 C-13 14.36 -13 11.72 -13 9 C-11.68 9 -10.36 9 -9 9 C-8.67 8.01 -8.34 7.02 -8 6 C-6.68 6 -5.36 6 -4 6 C-4 5.34 -4 4.68 -4 4 C-2.70766393 2.62689293 -1.37562854 1.28965176 0 0 Z " fill="#EE0F0A" transform="translate(126,140)"/>
<path d="M0 0 C0.66 0 1.32 0 2 0 C2.14533356 6.88823385 1.74706073 13.54863166 0.90625 20.3828125 C0.73977966 21.79323318 0.73977966 21.79323318 0.56994629 23.23214722 C0.21874171 26.19711009 -0.14048289 29.16103481 -0.5 32.125 C-0.74141934 34.15097812 -0.98230963 36.17701935 -1.22265625 38.203125 C-1.80899692 43.13616669 -2.40252574 48.06829491 -3 53 C-4.9451 50.08235 -5.45276317 48.37462715 -6 45 C-5.34 45 -4.68 45 -4 45 C-3.58764693 41.00254149 -3.17892488 37.00472791 -2.77319336 33.0065918 C-2.56869638 30.99835086 -2.36153814 28.99038147 -2.15429688 26.98242188 C-1.24434891 17.99391146 -0.54292467 9.0177279 0 0 Z " fill="#CA2123" transform="translate(102,120)"/>
<path d="M0 0 C0.33 3.63 0.66 7.26 1 11 C-1 11 -3 11 -5 11 C-8.07692308 5.70769231 -8.07692308 5.70769231 -7.6875 2.125 C-7.460625 1.42375 -7.23375 0.7225 -7 0 C-4 -1 -4 -1 0 0 Z " fill="#ED0E09" transform="translate(45,39)"/>
<path d="M0 0 C12.66970387 0.96355353 12.66970387 0.96355353 18 2 C18 3.32 18 4.64 18 6 C13.545 6.495 13.545 6.495 9 7 C9 6.34 9 5.68 9 5 C8.071875 5.061875 7.14375 5.12375 6.1875 5.1875 C3 5 3 5 1.125 3.625 C0 2 0 2 0 0 Z " fill="#FBF9F9" transform="translate(115,56)"/>
<path d="M0 0 C0.99 0.99 1.98 1.98 3 3 C2.01 3.33 1.02 3.66 0 4 C0 4.99 0 5.98 0 7 C-2.625 8.625 -2.625 8.625 -6 10 C-9.375 9.1875 -9.375 9.1875 -12 8 C-10.7954483 5.02877247 -9.75946836 3.34472323 -6.796875 2 C-4.54413248 1.26325402 -2.29484731 0.59175308 0 0 Z " fill="#ECE0D9" transform="translate(127,101)"/>
<path d="M0 0 C-0.87631122 5.69602295 -4.76047656 10.30751184 -9 14 C-9.99 14.33 -10.98 14.66 -12 15 C-12.66 14.67 -13.32 14.34 -14 14 C-14 13.34 -14 12.68 -14 12 C-13.34 12 -12.68 12 -12 12 C-12 11.34 -12 10.68 -12 10 C-11.34 10 -10.68 10 -10 10 C-9.773125 9.278125 -9.54625 8.55625 -9.3125 7.8125 C-7.30908561 3.51946916 -4.96764292 0 0 0 Z " fill="#F0F0EA" transform="translate(125,154)"/>
<path d="M0 0 C0.33 0.66 0.66 1.32 1 2 C0.35561283 3.67540664 -0.31246699 5.34183216 -1 7 C-1 7.99 -1 8.98 -1 10 C-1.66 10 -2.32 10 -3 10 C-3 11.32 -3 12.64 -3 14 C-4.63790712 15.04644066 -6.31008021 16.0398183 -8 17 C-9.98675396 19.26269201 -11.65416347 21.30832695 -13 24 C-13.66 24 -14.32 24 -15 24 C-15 24.66 -15 25.32 -15 26 C-15.66 25.67 -16.32 25.34 -17 25 C-11.39 16.75 -5.78 8.5 0 0 Z " fill="#F9DCDA" transform="translate(128,140)"/>
<path d="M0 0 C0.99 0.33 1.98 0.66 3 1 C4.07526882 11.61827957 4.07526882 11.61827957 4 16.125 C4 17.07375 4 18.0225 4 19 C4.33 19.33 4.66 19.66 5 20 C5.04063832 21.66617115 5.042721 23.33388095 5 25 C2.33206665 22.33206665 1.63659192 19.67368839 0.375 16.125 C-0.07101563 14.89007813 -0.51703125 13.65515625 -0.9765625 12.3828125 C-2 9 -2 9 -2 5 C-1.34 5 -0.68 5 0 5 C0 3.35 0 1.7 0 0 Z " fill="#DE1216" transform="translate(73,89)"/>
<path d="M0 0 C2.91786964 0.28218081 5.833918 0.57534127 8.75 0.875 C9.575 0.95363281 10.4 1.03226563 11.25 1.11328125 C12.04921875 1.19707031 12.8484375 1.28085937 13.671875 1.3671875 C14.4050293 1.44050293 15.13818359 1.51381836 15.89355469 1.58935547 C18.19952905 2.03889753 19.95391841 2.8637373 22 4 C19.93722893 3.85805236 17.87478969 3.71127784 15.8125 3.5625 C14.66394531 3.48128906 13.51539062 3.40007813 12.33203125 3.31640625 C9.48401829 3.04596188 6.78789518 2.62478253 4 2 C4.03122943 3.96756452 4.03122943 3.96756452 5 6 C7.99615946 7.3045656 7.99615946 7.3045656 11 8 C7.34142468 9.31534494 4.91973519 8.65468309 1.25 7.5625 C0.26515625 7.27503906 -0.7196875 6.98757812 -1.734375 6.69140625 C-2.85585937 6.34916016 -2.85585937 6.34916016 -4 6 C-2.68 5.67 -1.36 5.34 0 5 C-0.33 4.01 -0.66 3.02 -1 2 C-0.67 1.34 -0.34 0.68 0 0 Z " fill="#FDE4E6" transform="translate(111,54)"/>
<path d="M0 0 C4.66132863 3.57729872 7.73911534 7.10867301 11 12 C9.68 12.33 8.36 12.66 7 13 C7.350625 13.9075 7.70125 14.815 8.0625 15.75 C9.00170571 19.00591313 8.95514676 19.92749994 8 23 C6.66128359 19.54372619 5.32994608 16.08465703 4 12.625 C3.6184375 11.64015625 3.236875 10.6553125 2.84375 9.640625 C2.30234375 8.22910156 2.30234375 8.22910156 1.75 6.7890625 C1.41484375 5.91975098 1.0796875 5.05043945 0.734375 4.15478516 C0 2 0 2 0 0 Z " fill="#CB1C13" transform="translate(56,55)"/>
<path d="M0 0 C2.475 0.495 2.475 0.495 5 1 C5.28875 1.969375 5.5775 2.93875 5.875 3.9375 C6.64214682 7.10664203 6.64214682 7.10664203 9 8 C9 8.66 9 9.32 9 10 C9.99 10 10.98 10 12 10 C12.33 10.99 12.66 11.98 13 13 C13.639375 13.28875 14.27875 13.5775 14.9375 13.875 C17.76520044 15.41738206 18.0653792 16.98045587 19 20 C19.35858516 21.32676508 19.7018576 22.65835921 20 24 C16.29430504 21.21910062 13.43919961 18.3128594 10.5625 14.6875 C7.9145414 11.37533774 5.2505641 8.11052965 2.4375 4.9375 C0 2 0 2 0 0 Z " fill="#C22F2F" transform="translate(60,48)"/>
<path d="M0 0 C0.33 0 0.66 0 1 0 C1.07347656 1.19496094 1.07347656 1.19496094 1.1484375 2.4140625 C1.70029395 10.38157314 1.70029395 10.38157314 4 18 C5.65 18 7.3 18 9 18 C8.34 18.99 7.68 19.98 7 21 C4.671875 20.85546875 4.671875 20.85546875 2 20 C0.453125 17.48828125 0.453125 17.48828125 -0.75 14.3125 C-1.15734375 13.27738281 -1.5646875 12.24226562 -1.984375 11.17578125 C-2.96407095 8.11234738 -3.56113374 5.18178042 -4 2 C-3.01 2.33 -2.02 2.66 -1 3 C-0.67 2.01 -0.34 1.02 0 0 Z " fill="#FDDBE2" transform="translate(96,170)"/>
<path d="M0 0 C1 2 1 2 0.4375 4.375 C-1.41741462 7.76223539 -3.71164126 9.06987639 -7 11 C-6.67 12.32 -6.34 13.64 -6 15 C-7.61992165 15.86375896 -9.24611861 16.71575854 -10.875 17.5625 C-11.77992188 18.03816406 -12.68484375 18.51382813 -13.6171875 19.00390625 C-14.40351562 19.33261719 -15.18984375 19.66132812 -16 20 C-16.66 19.67 -17.32 19.34 -18 19 C-17.20335938 18.21496094 -16.40671875 17.42992188 -15.5859375 16.62109375 C-10.16260106 11.25243493 -4.8380257 5.91314252 0 0 Z " fill="#C12A28" transform="translate(141,82)"/>
<path d="M0 0 C2.63822024 3.10378852 3.70365731 5.81462924 4.6875 9.75 C5.06455078 11.22726563 5.06455078 11.22726563 5.44921875 12.734375 C5.63097656 13.48203125 5.81273437 14.2296875 6 15 C3.02873292 12.28922757 2.11756266 9.86848614 1 6 C1 9.96 1 13.92 1 18 C-0.60422719 14.79154562 -1.90307453 11.7330322 -3.125 8.375 C-3.47820313 7.41335937 -3.83140625 6.45171875 -4.1953125 5.4609375 C-5 3 -5 3 -5 1 C-4.34 1 -3.68 1 -3 1 C-3 1.66 -3 2.32 -3 3 C-2.34 3 -1.68 3 -1 3 C-0.67 2.01 -0.34 1.02 0 0 Z " fill="#FDD3D4" transform="translate(57,60)"/>
<path d="M0 0 C4.92680554 0.11807159 8.07695761 0.25002805 12 3.4375 C14 6 14 6 15 8 C9.32723489 8.29341888 6.00932754 8.00559652 1 5 C1 4.34 1 3.68 1 3 C0.34 2.67 -0.32 2.34 -1 2 C-0.67 1.34 -0.34 0.68 0 0 Z " fill="#FAF8F7" transform="translate(94,49)"/>
<path d="M0 0 C0.71027344 0.08378906 1.42054687 0.16757812 2.15234375 0.25390625 C3.53099609 0.40666016 3.53099609 0.40666016 4.9375 0.5625 C5.85402344 0.66691406 6.77054688 0.77132812 7.71484375 0.87890625 C8.84599609 0.93884766 8.84599609 0.93884766 10 1 C10.33 0.67 10.66 0.34 11 0 C12.66617115 -0.04063832 14.33388095 -0.042721 16 0 C16 0.66 16 1.32 16 2 C14.35 2 12.7 2 11 2 C11.33 3.65 11.66 5.3 12 7 C7.65535464 6.39174965 3.32448133 5.73832608 -1 5 C-1 4.34 -1 3.68 -1 3 C-1.99 2.67 -2.98 2.34 -4 2 C-2.68 2 -1.36 2 0 2 C0 1.34 0 0.68 0 0 Z " fill="#F20D12" transform="translate(63,34)"/>
<path d="M0 0 C1.13308594 0.21398438 2.26617187 0.42796875 3.43359375 0.6484375 C4.56925781 0.84695312 5.70492187 1.04546875 6.875 1.25 C9.87109375 2.0234375 9.87109375 2.0234375 12.87109375 4.0234375 C11.55109375 4.3534375 10.23109375 4.6834375 8.87109375 5.0234375 C8.87109375 4.3634375 8.87109375 3.7034375 8.87109375 3.0234375 C6.89109375 3.0234375 4.91109375 3.0234375 2.87109375 3.0234375 C2.87109375 3.6834375 2.87109375 4.3434375 2.87109375 5.0234375 C0.39609375 4.0334375 0.39609375 4.0334375 -2.12890625 3.0234375 C-2.12890625 4.0134375 -2.12890625 5.0034375 -2.12890625 6.0234375 C-0.18881103 7.72876073 -0.18881103 7.72876073 1.87109375 9.0234375 C0.61296875 8.8996875 -0.64515625 8.7759375 -1.94140625 8.6484375 C-2.64910156 8.57882813 -3.35679688 8.50921875 -4.0859375 8.4375 C-6.12890625 8.0234375 -6.12890625 8.0234375 -9.12890625 6.0234375 C-8.46890625 6.0234375 -7.80890625 6.0234375 -7.12890625 6.0234375 C-7.12890625 5.3634375 -7.12890625 4.7034375 -7.12890625 4.0234375 C-4.85593201 0.92951188 -3.91143786 0.02929916 0 0 Z " fill="#F9D1D0" transform="translate(71.12890625,41.9765625)"/>
<path d="M0 0 C1.65 0.33 3.3 0.66 5 1 C4.67 1.66 4.34 2.32 4 3 C1.6859378 3.73075648 -0.64828869 4.40138258 -3 5 C-2.979375 6.27746094 -2.95875 7.55492188 -2.9375 8.87109375 C-2.9375 13.98506646 -3.41717878 18.98644221 -4 24.0625 C-4.09539062 24.92810547 -4.19078125 25.79371094 -4.2890625 26.68554688 C-4.52169264 28.79084969 -4.76021969 30.89549956 -5 33 C-5.33 33 -5.66 33 -6 33 C-6.44246467 9.05774523 -6.44246467 9.05774523 -4 4 C-1.921875 2.75390625 -1.921875 2.75390625 0 2 C0 1.34 0 0.68 0 0 Z " fill="#FCC8C7" transform="translate(114,110)"/>
<path d="M0 0 C0.99 0.33 1.98 0.66 3 1 C2.95875 2.19625 2.9175 3.3925 2.875 4.625 C2.86148292 8.42329953 3.57990247 11.44975618 5 15 C3.0085944 15.38133299 1.00720923 15.71325582 -1 16 C-2 15 -2 15 -2.1875 11.375 C-2.15040203 7.26454534 -1.29581353 3.88744058 0 0 Z " fill="#FBF6F8" transform="translate(102,162)"/>
<path d="M0 0 C2.22145266 2.22145266 2.78300888 3.72508659 3.83984375 6.65625 C4.18080078 7.59726563 4.52175781 8.53828125 4.87304688 9.5078125 C5.39995117 10.98894531 5.39995117 10.98894531 5.9375 12.5 C6.45860352 13.93472656 6.45860352 13.93472656 6.99023438 15.3984375 C9.20083082 21.54314626 11.19324343 27.72489301 13 34 C12.34 34 11.68 34 11 34 C10.67 32.35 10.34 30.7 10 29 C9.34 29 8.68 29 8 29 C7.84144531 28.24976563 7.68289062 27.49953125 7.51953125 26.7265625 C6.29182792 21.34094677 4.95476261 16.55917169 2.3125 11.6875 C0.03741836 7.47110618 -0.51573223 4.74473654 0 0 Z " fill="#CE2C32" transform="translate(67,106)"/>
<path d="M0 0 C3.29153319 1.15492393 4.43112108 1.6923453 6.5625 4.25 C7.5525 4.91 8.5425 5.57 9.5625 6.25 C7.2525 7.57 4.9425 8.89 2.5625 10.25 C2.2325 9.59 1.9025 8.93 1.5625 8.25 C0.9025 7.92 0.2425 7.59 -0.4375 7.25 C-0.7675 6.26 -1.0975 5.27 -1.4375 4.25 C-2.0975 3.92 -2.7575 3.59 -3.4375 3.25 C-3.4375 2.59 -3.4375 1.93 -3.4375 1.25 C-4.0975 0.92 -4.7575 0.59 -5.4375 0.25 C-3.4375 -0.75 -3.4375 -0.75 0 0 Z " fill="#F8F9F8" transform="translate(165.4375,72.75)"/>
<path d="M0 0 C0.33 0.66 0.66 1.32 1 2 C0.67 2.99 0.34 3.98 0 5 C-0.99 5 -1.98 5 -3 5 C-3 6.32 -3 7.64 -3 9 C-3.99 9.495 -3.99 9.495 -5 10 C-5.45375 10.845625 -5.9075 11.69125 -6.375 12.5625 C-6.91125 13.366875 -7.4475 14.17125 -8 15 C-9.32 15 -10.64 15 -12 15 C-12 13.68 -12 12.36 -12 11 C-11.34 11 -10.68 11 -10 11 C-9.67 10.01 -9.34 9.02 -9 8 C-7.44140625 6.46484375 -7.44140625 6.46484375 -5.5625 4.9375 C-3.61446095 3.33921326 -1.78426056 1.78426056 0 0 Z " fill="#F7F8F9" transform="translate(113,171)"/>
<path d="M0 0 C0.99 0 1.98 0 3 0 C3 4.95 3 9.9 3 15 C2.01 15 1.02 15 0 15 C0 14.01 0 13.02 0 12 C-0.66 12 -1.32 12 -2 12 C-1.85962479 10.18706911 -1.71255111 8.3746557 -1.5625 6.5625 C-1.48128906 5.55316406 -1.40007812 4.54382813 -1.31640625 3.50390625 C-1 1 -1 1 0 0 Z " fill="#F90802" transform="translate(94,130)"/>
<path d="M0 0 C0 0.66 0 1.32 0 2 C-0.66 2.66 -1.32 3.32 -2 4 C-1.2575 3.649375 -0.515 3.29875 0.25 2.9375 C3.21122875 1.9279902 4.12062561 2.12019116 7 3 C4.87767021 4.17176518 2.75242209 5.33754785 0.625 6.5 C0.02171875 6.83386719 -0.5815625 7.16773437 -1.203125 7.51171875 C-5.7734375 10 -5.7734375 10 -8 10 C-8 8 -8 8 -6 6 C-7.32 5.34 -8.64 4.68 -10 4 C-8.71086513 3.32845067 -7.41859796 2.66291141 -6.125 2 C-5.40570313 1.62875 -4.68640625 1.2575 -3.9453125 0.875 C-2 0 -2 0 0 0 Z " fill="#FCD7D7" transform="translate(135,97)"/>
<path d="M0 0 C0.33 0 0.66 0 1 0 C1.33 3.3 1.66 6.6 2 10 C3.32 9.34 4.64 8.68 6 8 C5.67 13.61 5.34 19.22 5 25 C2.64666204 20.29332409 2.82897962 18.1306114 3 13 C2.01 13.33 1.02 13.66 0 14 C-0.33 15.32 -0.66 16.64 -1 18 C-0.505 9.09 -0.505 9.09 0 0 Z " fill="#F8BDBC" transform="translate(102,138)"/>
<path d="M0 0 C4.93054827 2.71683272 9.46284362 5.66657898 14 9 C13.67 9.66 13.34 10.32 13 11 C12.34 11 11.68 11 11 11 C10.443125 10.401875 9.88625 9.80375 9.3125 9.1875 C6.38996893 6.42294358 3.73945473 5.43825182 0 4 C-0.556875 4.969375 -1.11375 5.93875 -1.6875 6.9375 C-4 10 -4 10 -6.75 10.875 C-7.4925 10.91625 -8.235 10.9575 -9 11 C-6.36113346 6.7973607 -3.63559661 3.43361902 0 0 Z " fill="#D02C33" transform="translate(151,71)"/>
<path d="M0 0 C0.33 0.66 0.66 1.32 1 2 C-0.54701779 6.17694802 -2.14841625 9.55433631 -5 13 C-5.556875 13.7425 -6.11375 14.485 -6.6875 15.25 C-7.3371875 16.11625 -7.3371875 16.11625 -8 17 C-7.34 17 -6.68 17 -6 17 C-6.33 17.66 -6.66 18.32 -7 19 C-7.99 19.33 -8.98 19.66 -10 20 C-10.33 20.66 -10.66 21.32 -11 22 C-11.99 22 -12.98 22 -14 22 C-12.44015257 17.33818326 -9.88286951 13.78746577 -7 9.875 C-6.10386221 8.64345064 -5.20801823 7.41168744 -4.3125 6.1796875 C-3.549375 5.13039063 -2.78625 4.08109375 -2 3 C-1.34 2.01 -0.68 1.02 0 0 Z " fill="#F7CBC7" transform="translate(143,118)"/>
<path d="M0 0 C4.54805635 -0.17835515 7.8794254 0.00214565 12 2 C11.67 3.98 11.34 5.96 11 8 C10.67 7.34 10.34 6.68 10 6 C6.7 6 3.4 6 0 6 C0 4.02 0 2.04 0 0 Z " fill="#F0F5F3" transform="translate(146,64)"/>
<path d="M0 0 C1.65 0 3.3 0 5 0 C5.33 0.99 5.66 1.98 6 3 C5.67 3.66 5.34 4.32 5 5 C4.34 5 3.68 5 3 5 C3.33 8.96 3.66 12.92 4 17 C1.42245008 13.56326677 0.575641 12.38850278 -0.25 8.5 C-0.42015625 7.7471875 -0.5903125 6.994375 -0.765625 6.21875 C-1.01407873 3.86672134 -0.71240559 2.238989 0 0 Z " fill="#F10A0B" transform="translate(67,77)"/>
<path d="M0 0 C0.66 0 1.32 0 2 0 C1.649375 0.928125 1.29875 1.85625 0.9375 2.8125 C-0.32382628 5.9802953 -0.32382628 5.9802953 1 9 C1.63808594 9.04898438 2.27617188 9.09796875 2.93359375 9.1484375 C3.75988281 9.22320312 4.58617188 9.29796875 5.4375 9.375 C6.26121094 9.44460937 7.08492187 9.51421875 7.93359375 9.5859375 C8.95646484 9.79089844 8.95646484 9.79089844 10 10 C10.33 10.66 10.66 11.32 11 12 C2.09 10.02 2.09 10.02 -7 8 C-6.34 6.35 -5.68 4.7 -5 3 C-2.9375 2.3125 -2.9375 2.3125 -1 2 C-0.67 1.34 -0.34 0.68 0 0 Z " fill="#DE1B24" transform="translate(100,40)"/>
<path d="M0 0 C0.33 1.32 0.66 2.64 1 4 C0.34 4 -0.32 4 -1 4 C-1.33 5.98 -1.66 7.96 -2 10 C-2.99 10 -3.98 10 -5 10 C-5.1546875 11.6396875 -5.1546875 11.6396875 -5.3125 13.3125 C-6 17 -6 17 -7.3125 18.875 C-9.19619717 20.13079812 -10.77888714 20.61704951 -13 21 C-11.58640226 16.95696398 -9.63594388 13.91208947 -7.0625 10.5 C-4.50039522 7.09024561 -2.13488726 3.69422497 0 0 Z " fill="#D2231F" transform="translate(154,116)"/>
<path d="M0 0 C2.475 0.495 2.475 0.495 5 1 C5.99 6.28 6.98 11.56 8 17 C5 16 5 16 4.05078125 14.109375 C1.58936253 6.24325381 1.58936253 6.24325381 2 2 C1.34 2 0.68 2 0 2 C0 1.34 0 0.68 0 0 Z " fill="#FCF7F7" transform="translate(68,103)"/>
<path d="M0 0 C6.24932109 0.76253988 12.30889596 2.13900511 18.4375 3.5625 C19.96407227 3.91344727 19.96407227 3.91344727 21.52148438 4.27148438 C24.01492607 4.84509303 26.50772922 5.42132897 29 6 C29 6.66 29 7.32 29 8 C27.0412957 7.85923685 25.08303907 7.7122324 23.125 7.5625 C22.03445312 7.48128906 20.94390625 7.40007812 19.8203125 7.31640625 C17 7 17 7 15 6 C15 5.34 15 4.68 15 4 C14.41992188 3.93941406 13.83984375 3.87882812 13.2421875 3.81640625 C8.79907137 3.33983439 4.40094577 2.78991334 0 2 C0 1.34 0 0.68 0 0 Z " fill="#CF2826" transform="translate(111,61)"/>
<path d="M0 0 C0 3.29223784 -0.50518132 5.08510357 -2 8 C-3.33333333 8.66666667 -4.66666667 9.33333333 -6 10 C-6.99 11.485 -6.99 11.485 -8 13 C-9.93942135 15.90913202 -10.75497567 16.95321796 -14 18 C-14.99 18 -15.98 18 -17 18 C-15.91332031 16.93072266 -15.91332031 16.93072266 -14.8046875 15.83984375 C-9.63826191 10.73055506 -4.6201281 5.61907471 0 0 Z " fill="#FCDFD5" transform="translate(140,74)"/>
<path d="M0 0 C4.82595555 3.61946667 8.33134555 7.73142082 12.03125 12.484375 C14.58658931 15.74953079 17.27975044 18.87171301 20 22 C19.67 22.66 19.34 23.32 19 24 C18.22914062 23.14535156 17.45828125 22.29070312 16.6640625 21.41015625 C15.65119765 20.29412924 14.63816827 19.17825156 13.625 18.0625 C13.11710937 17.49853516 12.60921875 16.93457031 12.0859375 16.35351562 C9.37315113 13.26615288 9.37315113 13.26615288 6 11 C5.375 8.4375 5.375 8.4375 5 6 C4.01 5.67 3.02 5.34 2 5 C0.8125 2.4375 0.8125 2.4375 0 0 Z " fill="#CE2F36" transform="translate(67,68)"/>
<path d="M0 0 C6.85155525 0.38064196 13.38817278 2.24786579 20 4 C20 4.33 20 4.66 20 5 C18.54176788 5.0270043 17.08339325 5.04639787 15.625 5.0625 C14.81289063 5.07410156 14.00078125 5.08570313 13.1640625 5.09765625 C11 5 11 5 9 4 C7.46331135 3.77532169 5.92031946 3.59203195 4.375 3.4375 C3.55773438 3.35371094 2.74046875 3.26992188 1.8984375 3.18359375 C1.27195313 3.12300781 0.64546875 3.06242187 0 3 C-0.66 4.32 -1.32 5.64 -2 7 C-2.125 4.625 -2.125 4.625 -2 2 C-1.34 1.34 -0.68 0.68 0 0 Z " fill="#FDD6CF" transform="translate(47,37)"/>
<path d="M0 0 C0.99 0 1.98 0 3 0 C4.0064275 1.66279327 5.00585407 3.32983484 6 5 C6.680625 5.309375 7.36125 5.61875 8.0625 5.9375 C10 7 10 7 11.3125 10 C12 13 12 13 11 15 C9 14 9 14 8.25 12.3125 C6.69246075 9.43105239 4.63350972 7.57544199 2.2421875 5.3671875 C1 4 1 4 1 2 C0.34 1.67 -0.32 1.34 -1 1 C-0.67 0.67 -0.34 0.34 0 0 Z " fill="#F7F5F2" transform="translate(76,73)"/>
<path d="M0 0 C2.95183101 2.95183101 3.08663988 5.95511947 4 10 C3.67 10 3.34 10 3 10 C2.87625 11.134375 2.7525 12.26875 2.625 13.4375 C2.41875 14.613125 2.2125 15.78875 2 17 C1.34 17.33 0.68 17.66 0 18 C-1.23102992 14.30691024 -0.87175152 11.11949288 -0.5625 7.3125 C-0.51029297 6.61060547 -0.45808594 5.90871094 -0.40429688 5.18554688 C-0.27492135 3.45661946 -0.13817469 1.72824645 0 0 Z " fill="#E9100C" transform="translate(71,121)"/>
<path d="M0 0 C0.66 0 1.32 0 2 0 C5.38445205 7.81304356 7.77557024 15.78854119 10 24 C9.34 24.33 8.68 24.66 8 25 C6.66165014 21.21008507 5.33017337 17.41779164 4 13.625 C3.6184375 12.54476562 3.236875 11.46453125 2.84375 10.3515625 C2.4828125 9.3203125 2.121875 8.2890625 1.75 7.2265625 C1.41484375 6.27346191 1.0796875 5.32036133 0.734375 4.33837891 C0 2 0 2 0 0 Z " fill="#CE2222" transform="translate(78,115)"/>
<path d="M0 0 C3.03209857 3.46779602 4.31860236 7.30738933 5.6875 11.625 C5.91244141 12.305625 6.13738281 12.98625 6.36914062 13.6875 C8 18.70400361 8 18.70400361 8 21 C7.01 21 6.02 21 5 21 C4.89042969 20.38511719 4.78085937 19.77023438 4.66796875 19.13671875 C4.43013672 17.92435547 4.43013672 17.92435547 4.1875 16.6875 C3.96126953 15.48673828 3.96126953 15.48673828 3.73046875 14.26171875 C3.17481238 11.93080739 3.17481238 11.93080739 1.4375 10.5 C0 9 0 9 -0.29296875 6.73828125 C-0.25816406 5.93777344 -0.22335938 5.13726562 -0.1875 4.3125 C-0.16042969 3.50425781 -0.13335937 2.69601563 -0.10546875 1.86328125 C-0.07066406 1.24839844 -0.03585938 0.63351563 0 0 Z " fill="#D12529" transform="translate(59,84)"/>
<path d="M0 0 C1.98 0.66 3.96 1.32 6 2 C5.09827532 3.17825358 4.17798498 4.34231577 3.25 5.5 C2.48429687 6.47453125 2.48429687 6.47453125 1.703125 7.46875 C0 9 0 9 -4 9 C-3.42618522 5.67187429 -2.40619252 4.30157545 0 2 C0 1.34 0 0.68 0 0 Z " fill="#EB181C" transform="translate(124,83)"/>
<path d="M0 0 C3.0831351 1.19899698 6.06279492 2.47700477 9 4 C9 4.66 9 5.32 9 6 C9.99 6.33 10.98 6.66 12 7 C12.25 13.625 12.25 13.625 10 17 C9.01 16.67 8.02 16.34 7 16 C7.66 15.01 8.32 14.02 9 13 C9.54175707 10.5320545 9.54175707 10.5320545 9 8 C7.05108741 5.91701086 7.05108741 5.91701086 4.5 4.25 C2.99120872 3.17894446 1.48870364 2.09880507 0 1 C0 0.67 0 0.34 0 0 Z " fill="#D0292C" transform="translate(167,71)"/>
<path d="M0 0 C1.216875 -0.04125 2.43375 -0.0825 3.6875 -0.125 C4.71423828 -0.15980469 4.71423828 -0.15980469 5.76171875 -0.1953125 C8 0 8 0 10.375 0.96875 C13.42142002 2.16555787 16.05337355 2.41011254 19.3125 2.625 C20.91544922 2.73714844 20.91544922 2.73714844 22.55078125 2.8515625 C23.35902344 2.90054688 24.16726562 2.94953125 25 3 C24.67 3.99 24.34 4.98 24 6 C18.3444819 5.39496146 12.99786009 4.37814297 7.5 2.9375 C6.77296875 2.75123047 6.0459375 2.56496094 5.296875 2.37304688 C3.53012276 1.91973545 1.76489225 1.4604998 0 1 C0 0.67 0 0.34 0 0 Z " fill="#CE363A" transform="translate(113,52)"/>
<path d="M0 0 C2.04912029 2.04912029 2.60188499 3.20941909 3.5625 5.875 C3.81128906 6.55304688 4.06007813 7.23109375 4.31640625 7.9296875 C4.97936586 9.93750802 5.5156191 11.94253445 6 14 C5.01 14.33 4.02 14.66 3 15 C2.34 14.67 1.68 14.34 1 14 C-0.14242743 9.31604754 -0.08252495 4.78644729 0 0 Z " fill="#FCF3FA" transform="translate(57,64)"/>
<path d="M0 0 C3 2 3 2 3.8125 4.375 C4.02089707 7.29255898 3.53656962 8.5595659 2 11 C1.67 10.34 1.34 9.68 1 9 C0.34 9 -0.32 9 -1 9 C-1.33 6.36 -1.66 3.72 -2 1 C-1.34 0.67 -0.68 0.34 0 0 Z " fill="#FCE5E4" transform="translate(93,163)"/>
<path d="M0 0 C-0.25561323 2.3431213 -0.59270772 4.67843403 -1 7 C-1.99 7.495 -1.99 7.495 -3 8 C-3.99 9.485 -3.99 9.485 -5 11 C-5.99 11.495 -5.99 11.495 -7 12 C-7.33 11.01 -7.66 10.02 -8 9 C-7.01 8.67 -6.02 8.34 -5 8 C-5.185625 7.401875 -5.37125 6.80375 -5.5625 6.1875 C-6 4 -6 4 -5 1 C-2 0 -2 0 0 0 Z " fill="#F9F9FA" transform="translate(155,109)"/>
<path d="M0 0 C1.65 0 3.3 0 5 0 C4.67 0.99 4.34 1.98 4 3 C2.67696283 3.3721042 1.34262065 3.70630173 0 4 C-0.33 4.66 -0.66 5.32 -1 6 C-3.97 5.67 -6.94 5.34 -10 5 C-9.67 4.34 -9.34 3.68 -9 3 C-6.93359375 2.5859375 -6.93359375 2.5859375 -4.4375 2.375 C-3.61121094 2.30023438 -2.78492187 2.22546875 -1.93359375 2.1484375 C-0.97646484 2.07496094 -0.97646484 2.07496094 0 2 C0 1.34 0 0.68 0 0 Z " fill="#E81108" transform="translate(95,40)"/>
<path d="M0 0 C0.33 0 0.66 0 1 0 C1.33 2.31 1.66 4.62 2 7 C-0.64 7.33 -3.28 7.66 -6 8 C-6 6.35 -6 4.7 -6 3 C-5.195625 2.87625 -4.39125 2.7525 -3.5625 2.625 C-2.716875 2.41875 -1.87125 2.2125 -1 2 C-0.67 1.34 -0.34 0.68 0 0 Z " fill="#EE0E0C" transform="translate(94,184)"/>
<path d="M0 0 C3.63221409 2.73051059 6.45291105 5.54856948 9.25 9.125 C9.93578125 9.99382812 10.6215625 10.86265625 11.328125 11.7578125 C13 14 13 14 14 16 C10.88079662 15.66579964 10.04525746 15.05211466 7.9375 12.625 C7.298125 11.75875 6.65875 10.8925 6 10 C4.31882996 8.18950919 3.21046772 7.10523386 1 6 C0.375 2.9375 0.375 2.9375 0 0 Z " fill="#D0261F" transform="translate(87,92)"/>
<path d="M0 0 C3.98069267 2.87494471 6.43571997 5.82117329 9 10 C8.01 10.495 8.01 10.495 7 11 C6.67 10.34 6.34 9.68 6 9 C5.01 9 4.02 9 3 9 C2.67 9.99 2.34 10.98 2 12 C1.01 10.35 0.02 8.7 -1 7 C-0.34 7 0.32 7 1 7 C0.67 4.69 0.34 2.38 0 0 Z " fill="#FAC9CD" transform="translate(86,81)"/>
<path d="M0 0 C5.21979128 -0.1799928 9.07262981 0.02905192 14 2 C14 2.66 14 3.32 14 4 C16.64 4.33 19.28 4.66 22 5 C18.88925167 5.9867097 16.83557243 5.96838493 13.671875 5.22265625 C12.87265625 5.03896484 12.0734375 4.85527344 11.25 4.66601562 C10.425 4.46685547 9.6 4.26769531 8.75 4.0625 C7.90953125 3.86720703 7.0690625 3.67191406 6.203125 3.47070312 C4.13351102 2.98857714 2.06648605 2.49536137 0 2 C0 1.34 0 0.68 0 0 Z " fill="#D12129" transform="translate(71,41)"/>
<path d="M0 0 C0.99 0.33 1.98 0.66 3 1 C1.9218837 2.58689029 0.83726048 4.16936082 -0.25 5.75 C-0.85328125 6.63171875 -1.4565625 7.5134375 -2.078125 8.421875 C-3.89141332 10.85433494 -5.80049269 12.91728069 -8 15 C-7.45276317 11.62537285 -6.9451 9.91765 -5 7 C-4.34 7 -3.68 7 -3 7 C-3.0928125 5.824375 -3.0928125 5.824375 -3.1875 4.625 C-3.125625 3.75875 -3.06375 2.8925 -3 2 C-2.01 1.34 -1.02 0.68 0 0 Z " fill="#FCDCD5" transform="translate(142,130)"/>
<path d="M0 0 C2 1.0625 2 1.0625 4 3 C4.25 6.6875 4.25 6.6875 4 10 C3.01 10.33 2.02 10.66 1 11 C0.26676204 13.01508358 0.26676204 13.01508358 0 15 C0 10 0 5 0 0 Z " fill="#E71418" transform="translate(101,109)"/>
<path d="M0 0 C-2.60295276 1.31495542 -5.20728033 2.62704986 -7.8125 3.9375 C-8.55048828 4.31068359 -9.28847656 4.68386719 -10.04882812 5.06835938 C-10.76103516 5.42607422 -11.47324219 5.78378906 -12.20703125 6.15234375 C-12.8616333 6.48226318 -13.51623535 6.81218262 -14.19067383 7.15209961 C-16 8 -16 8 -19 9 C-19 8.34 -19 7.68 -19 7 C-18.34 7 -17.68 7 -17 7 C-16.67 6.01 -16.34 5.02 -16 4 C-14.15234375 3.26953125 -14.15234375 3.26953125 -11.9375 2.8125 C-11.20402344 2.65394531 -10.47054687 2.49539062 -9.71484375 2.33203125 C-8.86599609 2.16767578 -8.86599609 2.16767578 -8 2 C-8 1.34 -8 0.68 -8 0 C-4.71303767 -0.79953138 -3.28976808 -1.09658936 0 0 Z " fill="#CE322A" transform="translate(162,83)"/>
<path d="M0 0 C0.66 0.33 1.32 0.66 2 1 C0.19587357 4.26460973 -0.83394693 5.88929795 -4 8 C-4.72382467 10.05925139 -4.72382467 10.05925139 -5 12 C-5.99 12 -6.98 12 -8 12 C-5.62711864 3.01694915 -5.62711864 3.01694915 -2 0.75 C-1.34 0.5025 -0.68 0.255 0 0 Z " fill="#F7E7E4" transform="translate(145,72)"/>
<path d="M0 0 C4.29 0.66 8.58 1.32 13 2 C13 2.66 13 3.32 13 4 C14.98 4 16.96 4 19 4 C19 4.33 19 4.66 19 5 C14.66670083 5.98484072 12.87000353 5.96388239 9 4 C6.64435404 3.55188863 6.64435404 3.55188863 4.25 3.375 C3.45078125 3.30023438 2.6515625 3.22546875 1.828125 3.1484375 C1.22484375 3.09945312 0.6215625 3.05046875 0 3 C0 2.01 0 1.02 0 0 Z " fill="#E90E11" transform="translate(98,59)"/>
<path d="M0 0 C0.33 0 0.66 0 1 0 C1.125 7.625 1.125 7.625 0 11 C-0.99 11.33 -1.98 11.66 -3 12 C-3.33 9.69 -3.66 7.38 -4 5 C-3.34 5 -2.68 5 -2 5 C-1.34 3.35 -0.68 1.7 0 0 Z " fill="#E31720" transform="translate(91,134)"/>
<path d="M0 0 C-0.33 1.32 -0.66 2.64 -1 4 C-2.32 4.33 -3.64 4.66 -5 5 C-4.97679688 5.77085938 -4.95359375 6.54171875 -4.9296875 7.3359375 C-4.91164063 8.33882812 -4.89359375 9.34171875 -4.875 10.375 C-4.85179688 11.37273437 -4.82859375 12.37046875 -4.8046875 13.3984375 C-5 16 -5 16 -7 18 C-6.94014838 15.37251369 -6.85323776 12.75083005 -6.75 10.125 C-6.73582031 9.37863281 -6.72164063 8.63226563 -6.70703125 7.86328125 C-6.609375 5.6953125 -6.609375 5.6953125 -6 2 C-3.82341175 0.2923515 -2.73273248 0 0 0 Z " fill="#CD2B2B" transform="translate(117,113)"/>
<path d="M0 0 C2.0245738 1.93254772 3.42105792 3.63158688 5 6 C7.05925139 6.72382467 7.05925139 6.72382467 9 7 C8.67 8.65 8.34 10.3 8 12 C8.66 12.33 9.32 12.66 10 13 C9.01 13 8.02 13 7 13 C4.921875 10.91796875 4.921875 10.91796875 2.75 8.1875 C2.02296875 7.29417969 1.2959375 6.40085937 0.546875 5.48046875 C0.03640625 4.66191406 -0.4740625 3.84335938 -1 3 C-0.67 2.01 -0.34 1.02 0 0 Z " fill="#F2DAD3" transform="translate(90,91)"/>
<path d="M0 0 C0.103125 0.61875 0.20625 1.2375 0.3125 1.875 C0.87525373 4.36526484 0.87525373 4.36526484 4 6 C2.68 7.32 1.36 8.64 0 10 C0 9.01 0 8.02 0 7 C-0.66 6.34 -1.32 5.68 -2 5 C-4.10820797 5.3185177 -4.10820797 5.3185177 -6 6 C-6 6.99 -6 7.98 -6 9 C-6.66 8.67 -7.32 8.34 -8 8 C-7.67 7.01 -7.34 6.02 -7 5 C-6.34 5 -5.68 5 -5 5 C-4.731875 4.360625 -4.46375 3.72125 -4.1875 3.0625 C-3 1 -3 1 0 0 Z " fill="#E8DDD4" transform="translate(170,83)"/>
<path d="M0 0 C0.99 0.99 1.98 1.98 3 3 C1.515 5.475 1.515 5.475 0 8 C-0.99 7.67 -1.98 7.34 -3 7 C-3 7.66 -3 8.32 -3 9 C-3.66 9 -4.32 9 -5 9 C-5 6.69 -5 4.38 -5 2 C-4.360625 1.855625 -3.72125 1.71125 -3.0625 1.5625 C-1.02454854 1.18992819 -1.02454854 1.18992819 0 0 Z " fill="#F2D6D3" transform="translate(60,50)"/>
<path d="M0 0 C1.90318884 2.85478326 2.4619099 4.41941308 3.125 7.6875 C3.29257813 8.49574219 3.46015625 9.30398437 3.6328125 10.13671875 C3.75398438 10.75160156 3.87515625 11.36648437 4 12 C2.35 11.67 0.7 11.34 -1 11 C-1.33 8.69 -1.66 6.38 -2 4 C-1.34 4 -0.68 4 0 4 C0 2.68 0 1.36 0 0 Z " fill="#EB0C08" transform="translate(82,150)"/>
<path d="M0 0 C0.66 0.33 1.32 0.66 2 1 C-1.3 5.95 -4.6 10.9 -8 16 C-9 14 -9 14 -8.44140625 12.0546875 C-8.00634766 10.97574219 -8.00634766 10.97574219 -7.5625 9.875 C-7.27503906 9.15054688 -6.98757812 8.42609375 -6.69140625 7.6796875 C-6.46324219 7.12539062 -6.23507813 6.57109375 -6 6 C-5.34 6 -4.68 6 -4 6 C-4 5.34 -4 4.68 -4 4 C-2.70766393 2.62689293 -1.37562854 1.28965176 0 0 Z " fill="#CC221F" transform="translate(126,140)"/>
<path d="M0 0 C0.33 0.66 0.66 1.32 1 2 C-0.24409895 3.92050226 -1.49553435 5.83625314 -2.75 7.75 C-3.44609375 8.81734375 -4.1421875 9.8846875 -4.859375 10.984375 C-6.73853132 13.63165361 -8.62795543 15.7989136 -11 18 C-11.25 15.6875 -11.25 15.6875 -11 13 C-9.125 11.4375 -9.125 11.4375 -7 10 C-6.31513275 8.67592331 -5.65129797 7.34090759 -5 6 C-3.40123373 3.93429247 -1.70846341 1.9782208 0 0 Z " fill="#C02623" transform="translate(154,100)"/>
<path d="M0 0 C1.32 0 2.64 0 4 0 C5.0625 1.8125 5.0625 1.8125 6 4 C5.67 4.99 5.34 5.98 5 7 C4.01 7.33 3.02 7.66 2 8 C0 6 0 6 -0.125 2.875 C-0.08375 1.92625 -0.0425 0.9775 0 0 Z " fill="#EB0E0B" transform="translate(177,68)"/>
<path d="M0 0 C3.14624993 -0.26218749 4.61837017 -0.24754367 7.3125 1.5 C8.1478125 2.2425 8.1478125 2.2425 9 3 C8.67 3.99 8.34 4.98 8 6 C6.35 6 4.7 6 3 6 C2.01 4.02 1.02 2.04 0 0 Z " fill="#E90F0E" transform="translate(64,50)"/>
<path d="M0 0 C0.66 0.33 1.32 0.66 2 1 C0.90073597 2.77388086 -0.20460502 4.54399684 -1.3125 6.3125 C-2.23482422 7.79169922 -2.23482422 7.79169922 -3.17578125 9.30078125 C-4.66324661 11.50172035 -6.0403386 13.23328988 -8 15 C-8.1875 12.625 -8.1875 12.625 -8 10 C-7.01 9.34 -6.02 8.68 -5 8 C-4.67 7.01 -4.34 6.02 -4 5 C-3 2 -3 2 0 0 Z " fill="#D81E22" transform="translate(141,118)"/>
<path d="M0 0 C0.99 0.99 1.98 1.98 3 3 C2.01 3.33 1.02 3.66 0 4 C0 4.66 0 5.32 0 6 C-1.98 6.33 -3.96 6.66 -6 7 C-6.33 6.34 -6.66 5.68 -7 5 C-6.34 5 -5.68 5 -5 5 C-4.731875 4.360625 -4.46375 3.72125 -4.1875 3.0625 C-3 1 -3 1 0 0 Z " fill="#F8F7F2" transform="translate(127,101)"/>
<path d="M0 0 C0.66 0.33 1.32 0.66 2 1 C1.67 2.32 1.34 3.64 1 5 C0.34 5 -0.32 5 -1 5 C-1 5.66 -1 6.32 -1 7 C-1.99 7.495 -1.99 7.495 -3 8 C-3.72159424 9.64363134 -4.39351421 11.31050386 -5 13 C-5.66 13 -6.32 13 -7 13 C-7.33 13.66 -7.66 14.32 -8 15 C-8 10.91518119 -6.29880669 9.15295347 -4 5.8125 C-3.2575 4.72582031 -2.515 3.63914062 -1.75 2.51953125 C-1.1725 1.68808594 -0.595 0.85664062 0 0 Z " fill="#D6282C" transform="translate(172,90)"/>
<path d="M0 0 C0.53625 0.2475 1.0725 0.495 1.625 0.75 C1.295 2.07 0.965 3.39 0.625 4.75 C-3.83 5.245 -3.83 5.245 -8.375 5.75 C-8.375 5.09 -8.375 4.43 -8.375 3.75 C-3.23290173 -0.34030544 -3.23290173 -0.34030544 0 0 Z " fill="#FBF6F9" transform="translate(164.375,83.25)"/>
<path d="M0 0 C0.66 1.32 1.32 2.64 2 4 C1.01 4.33 0.02 4.66 -1 5 C-0.67 8.63 -0.34 12.26 0 16 C-1.36652838 13.26694324 -2.55712155 10.71188923 -3.625 7.875 C-3.88539062 7.19179687 -4.14578125 6.50859375 -4.4140625 5.8046875 C-5 4 -5 4 -5 2 C-3.68 2 -2.36 2 -1 2 C-0.67 1.34 -0.34 0.68 0 0 Z " fill="#F9C7C9" transform="translate(63,76)"/>
<path d="M0 0 C1.95803507 -0.05389087 3.91648909 -0.09274217 5.875 -0.125 C7.51082031 -0.15980469 7.51082031 -0.15980469 9.1796875 -0.1953125 C12 0 12 0 14 2 C15.31747324 2.69748583 16.64914193 3.36959957 18 4 C14.67429578 5.66285211 11.31639055 3.98079852 7.875 3.0625 C6.74384766 2.76956055 6.74384766 2.76956055 5.58984375 2.47070312 C3.72491694 1.98676642 1.86223541 1.49419231 0 1 C0 0.67 0 0.34 0 0 Z " fill="#DB2E31" transform="translate(137,58)"/>
<path d="M0 0 C4.29 0.99 8.58 1.98 13 3 C13 3.33 13 3.66 13 4 C11.8553125 3.938125 11.8553125 3.938125 10.6875 3.875 C7.77281584 3.77919176 7.77281584 3.77919176 5 6 C4.01 5.67 3.02 5.34 2 5 C2 4.34 2 3.68 2 3 C1.34 3 0.68 3 0 3 C0 2.01 0 1.02 0 0 Z " fill="#FCD1D2" transform="translate(87,46)"/>
<path d="M0 0 C2 4 2 4 2 6 C1.01 6 0.02 6 -1 6 C-1 6.66 -1 7.32 -1 8 C-3 9.625 -3 9.625 -5 11 C-5.66 10.67 -6.32 10.34 -7 10 C-3.535 5.05 -3.535 5.05 0 0 Z " fill="#CF2522" transform="translate(162,105)"/>
<path d="M0 0 C1.11375 0.350625 2.2275 0.70125 3.375 1.0625 C6.80264476 2.37239331 6.80264476 2.37239331 9 1 C9.33 2.65 9.66 4.3 10 6 C8 7 8 7 5.5625 6.375 C2.48364519 4.72293156 1.54100704 3.08201409 0 0 Z " fill="#E5141B" transform="translate(101,98)"/>
<path d="M0 0 C-0.99 0.495 -0.99 0.495 -2 1 C-2.65213292 3.02463255 -2.65213292 3.02463255 -3 5 C-3.61875 5.103125 -4.2375 5.20625 -4.875 5.3125 C-7.36526484 5.87525373 -7.36526484 5.87525373 -9 9 C-9.25 6.1875 -9.25 6.1875 -9 3 C-6.24653799 -0.05940224 -4.00406942 -0.33367245 0 0 Z " fill="#F4EFEA" transform="translate(62,47)"/>
<path d="M0 0 C7.875 0.875 7.875 0.875 9 2 C10.99958364 2.04080783 13.00045254 2.04254356 15 2 C14.67 3.32 14.34 4.64 14 6 C13.01 6 12.02 6 11 6 C11 5.34 11 4.68 11 4 C10.29875 4.061875 9.5975 4.12375 8.875 4.1875 C5.34739788 3.95743899 3.06015649 2.70799432 0 1 C0 0.67 0 0.34 0 0 Z " fill="#F9F2EB" transform="translate(72,44)"/>
<path d="M0 0 C2 1 2 1 2.75 2.9375 C2.8325 3.618125 2.915 4.29875 3 5 C2.34 5.66 1.68 6.32 1 7 C0.3574765 9.06874034 0.3574765 9.06874034 0 11 C-0.66 11 -1.32 11 -2 11 C-2 10.34 -2 9.68 -2 9 C-2.66 9 -3.32 9 -4 9 C-2.93940067 5.818202 -1.52448631 2.9826906 0 0 Z " fill="#F9F9F8" transform="translate(139,126)"/>
<path d="M0 0 C1.32 1.32 2.64 2.64 4 4 C2.68 4.33 1.36 4.66 0 5 C0.350625 5.9075 0.70125 6.815 1.0625 7.75 C2.00170571 11.00591313 1.95514676 11.92749994 1 15 C0.3291288 13.3767313 -0.33657029 11.75132422 -1 10.125 C-1.37125 9.22007813 -1.7425 8.31515625 -2.125 7.3828125 C-3 5 -3 5 -3 3 C-2.01 2.67 -1.02 2.34 0 2 C0 1.34 0 0.68 0 0 Z " fill="#C82620" transform="translate(63,63)"/>
<path d="M0 0 C2.29475491 2.85687067 3.89624245 5.62158199 5.3125 9 C5.86357422 10.2684375 5.86357422 10.2684375 6.42578125 11.5625 C7 14 7 14 6.10546875 16.3125 C5.74066406 16.869375 5.37585938 17.42625 5 18 C4.34838988 16.12699975 3.70397805 14.2514945 3.0625 12.375 C2.52302734 10.80878906 2.52302734 10.80878906 1.97265625 9.2109375 C1.04249877 6.14029714 0.45253692 3.172522 0 0 Z " fill="#FBCDD1" transform="translate(77,130)"/>
<path d="M0 0 C0.61875 0.474375 1.2375 0.94875 1.875 1.4375 C3.90705546 3.02417441 3.90705546 3.02417441 6 4 C4.35 5.32 2.7 6.64 1 8 C-0.32 6.68 -1.64 5.36 -3 4 C-2.01 2.68 -1.02 1.36 0 0 Z " fill="#F6E0DA" transform="translate(122,93)"/>
<path d="M0 0 C0.33 1.32 0.66 2.64 1 4 C1.66 4 2.32 4 3 4 C4.0625 6.375 4.0625 6.375 5 9 C4.67 9.66 4.34 10.32 4 11 C2.68 11 1.36 11 0 11 C0 7.37 0 3.74 0 0 Z " fill="#F3F2E6" transform="translate(97,170)"/>
<path d="M0 0 C0.99 0.33 1.98 0.66 3 1 C3.875 2.875 3.875 2.875 4 5 C2.5625 6.75 2.5625 6.75 1 8 C0.01 7.67 -0.98 7.34 -2 7 C-1.125 2.25 -1.125 2.25 0 0 Z " fill="#F1DDE1" transform="translate(110,166)"/>
<path d="M0 0 C0.66 0 1.32 0 2 0 C0.72278474 4.99275057 -1.17330957 7.57611908 -5 11 C-4.67 8.03 -4.34 5.06 -4 2 C-2.68 2 -1.36 2 0 2 C0 1.34 0 0.68 0 0 Z " fill="#FBDCD4" transform="translate(118,165)"/>
<path d="M0 0 C0.99 0.33 1.98 0.66 3 1 C2.01 1.66 1.02 2.32 0 3 C-1.20450304 5.55183404 -1.20450304 5.55183404 -2 8 C-2.99 8 -3.98 8 -5 8 C-5 8.66 -5 9.32 -5 10 C-5.66 10 -6.32 10 -7 10 C-5.6062718 5.56541027 -3.39417765 3.12621626 0 0 Z " fill="#EFFAF9" transform="translate(122,154)"/>
<path d="M0 0 C0.99 0.33 1.98 0.66 3 1 C2.67 2.65 2.34 4.3 2 6 C2.66 6 3.32 6 4 6 C3.67 7.32 3.34 8.64 3 10 C2.34 10 1.68 10 1 10 C-0.85064319 6.87703962 -1.29356154 4.62059232 -1 1 C-0.67 0.67 -0.34 0.34 0 0 Z " fill="#F40D03" transform="translate(85,124)"/>
<path d="M0 0 C0.66 0.33 1.32 0.66 2 1 C0.6744419 4.62276315 -0.94346955 7.63505348 -3.125 10.8125 C-3.66382813 11.60269531 -4.20265625 12.39289063 -4.7578125 13.20703125 C-5.37269531 14.09455078 -5.37269531 14.09455078 -6 15 C-6.33 13.68 -6.66 12.36 -7 11 C-6.34 11 -5.68 11 -5 11 C-4.9175 10.29875 -4.835 9.5975 -4.75 8.875 C-3.82972275 5.34727053 -2.11873023 2.93888386 0 0 Z " fill="#FBD4CF" transform="translate(152,115)"/>
<path d="M0 0 C0.66 0 1.32 0 2 0 C2 1.65 2 3.3 2 5 C2.66 5 3.32 5 4 5 C5.2890625 6.53125 5.2890625 6.53125 6.625 8.5 C7.07101563 9.1496875 7.51703125 9.799375 7.9765625 10.46875 C8.48316406 11.22671875 8.48316406 11.22671875 9 12 C8.67 12.66 8.34 13.32 8 14 C6.4641556 12.43122326 4.94668669 10.84443846 3.4375 9.25 C2.59058594 8.36828125 1.74367188 7.4865625 0.87109375 6.578125 C-1 4 -1 4 -0.77734375 1.671875 C-0.52082031 1.12015625 -0.26429687 0.5684375 0 0 Z " fill="#D31F28" transform="translate(81,70)"/>
<path d="M0 0 C2 3 2 3 1.8125 5.5 C0.95559826 8.13662075 0.11007147 9.25689748 -2 11 C-3 10 -3 10 -3.0625 7.4375 C-3.041875 6.633125 -3.02125 5.82875 -3 5 C-2.01 4.67 -1.02 4.34 0 4 C0 2.68 0 1.36 0 0 Z " fill="#EA100A" transform="translate(86,162)"/>
<path d="M0 0 C-0.33 3.3 -0.66 6.6 -1 10 C-1.99 9.67 -2.98 9.34 -4 9 C-4.1875 5.625 -4.1875 5.625 -4 2 C-1 0 -1 0 0 0 Z " fill="#FCF8F5" transform="translate(106,150)"/>
<path d="M0 0 C1.32 0 2.64 0 4 0 C2.4169423 4.2742558 -0.50568404 6.26531794 -4 9 C-4.33 7.35 -4.66 5.7 -5 4 C-3.02 3.67 -1.04 3.34 1 3 C0.67 2.01 0.34 1.02 0 0 Z " fill="#CB312E" transform="translate(141,68)"/>
<path d="M0 0 C2.37616467 2.37616467 3.04068181 4.35349521 4.1875 7.5 C4.55230469 8.4796875 4.91710937 9.459375 5.29296875 10.46875 C6 13 6 13 5 15 C2 13 2 13 1.375 10.3125 C1.25125 9.219375 1.1275 8.12625 1 7 C0.814375 5.72125 0.62875 4.4425 0.4375 3.125 C0.293125 2.09375 0.14875 1.0625 0 0 Z " fill="#FCCBC6" transform="translate(85,138)"/>
<path d="M0 0 C2.12038635 2.61514317 4.13091744 5.19637616 6 8 C2 8 2 8 0.3125 6.6875 C-1 5 -1 5 -2 2 C-1.34 2 -0.68 2 0 2 C0 1.34 0 0.68 0 0 Z " fill="#EBF0EB" transform="translate(99,98)"/>
<path d="M0 0 C1.65 0.33 3.3 0.66 5 1 C4.38722388 3.96175123 3.74627478 5.38058783 2 8 C1.34 8 0.68 8 0 8 C0 7.34 0 6.68 0 6 C0.66 6 1.32 6 2 6 C1.01 4.68 0.02 3.36 -1 2 C-0.67 1.34 -0.34 0.68 0 0 Z " fill="#E70F08" transform="translate(150,96)"/>
<path d="M0 0 C0.66 0.66 1.32 1.32 2 2 C-4.625 5.125 -4.625 5.125 -8 4 C-8 3.01 -8 2.02 -8 1 C-5.23749964 -0.38125018 -3.05268901 -0.19079306 0 0 Z " fill="#EE0A0A" transform="translate(150,84)"/>
<path d="M0 0 C2 0 2 0 3.625 1.375 C5 3 5 3 5 5 C5.66 5 6.32 5 7 5 C8.38938077 6.96147874 9.7260411 8.96166576 11 11 C10.67 11.66 10.34 12.32 10 13 C8.51511559 11.40112446 7.03726855 9.79571095 5.5625 8.1875 C4.32693359 6.84751953 4.32693359 6.84751953 3.06640625 5.48046875 C1 3 1 3 0 0 Z " fill="#C81B1C" transform="translate(90,84)"/>
<path d="M0 0 C0.66 0 1.32 0 2 0 C5.17692157 5.24882694 5.65697965 10.01488629 6 16 C4.08614468 13.12921701 3.03567048 10.66588344 1.875 7.4375 C1.52179687 6.46683594 1.16859375 5.49617188 0.8046875 4.49609375 C0 2 0 2 0 0 Z " fill="#FCCECE" transform="translate(46,45)"/>
<path d="M0 0 C2.97 0.495 2.97 0.495 6 1 C4.68 3.31 3.36 5.62 2 8 C0.23537317 4.91190305 0 3.76687864 0 0 Z " fill="#DE1619" transform="translate(127,132)"/>
<path d="M0 0 C0 0.66 0 1.32 0 2 C-2.90600261 3.25664978 -4.79604584 4 -8 4 C-8 3.34 -8 2.68 -8 2 C-8.66 1.67 -9.32 1.34 -10 1 C-3.375 -1.125 -3.375 -1.125 0 0 Z " fill="#F80910" transform="translate(152,100)"/>
<path d="M0 0 C2.375 0.1875 2.375 0.1875 5 1 C6.3125 3.5625 6.3125 3.5625 7 6 C6.01 6.495 6.01 6.495 5 7 C3.29115995 5.37660195 1.62553283 3.70680947 0 2 C0 1.34 0 0.68 0 0 Z " fill="#F10E05" transform="translate(81,66)"/>
<path d="M0 0 C0.99 0.33 1.98 0.66 3 1 C0.69 4.63 -1.62 8.26 -4 12 C-4.66 11.34 -5.32 10.68 -6 10 C-4.7260411 7.96166576 -3.38938077 5.96147874 -2 4 C-1.34 4 -0.68 4 0 4 C0 2.68 0 1.36 0 0 Z " fill="#FDCECC" transform="translate(110,176)"/>
<path d="M0 0 C0 0.99 0 1.98 0 3 C-1.65 3.33 -3.3 3.66 -5 4 C-5 4.66 -5 5.32 -5 6 C-7.31 6.33 -9.62 6.66 -12 7 C-8.35140239 3.95950199 -4.2555467 2.03481238 0 0 Z " fill="#D3242B" transform="translate(131,105)"/>
<path d="M0 0 C1.37562854 1.28965176 2.70766393 2.62689293 4 4 C4 4.66 4 5.32 4 6 C4.99 6.33 5.98 6.66 7 7 C3.98968256 7.93423645 3.13349732 8.04449911 0 7 C0.2784375 6.1028125 0.2784375 6.1028125 0.5625 5.1875 C1.22093687 2.83591238 1.22093687 2.83591238 0 0 Z " fill="#F3111A" transform="translate(90,98)"/>
<path d="M0 0 C0.144375 0.61875 0.28875 1.2375 0.4375 1.875 C0.93152225 4.03258322 0.93152225 4.03258322 2 6 C0.02 6.66 -1.96 7.32 -4 8 C-4 6 -4 6 -2 4 C-3.32 3.34 -4.64 2.68 -6 2 C-2.25 0 -2.25 0 0 0 Z " fill="#F5C6CB" transform="translate(131,99)"/>
<path d="M0 0 C1.32 0.66 2.64 1.32 4 2 C2.35 4.64 0.7 7.28 -1 10 C-1.66 9.34 -2.32 8.68 -3 8 C-2.01 5.36 -1.02 2.72 0 0 Z " fill="#FAD9DB" transform="translate(166,92)"/>
<path d="M0 0 C1.32 0.66 2.64 1.32 4 2 C3.25 4.9375 3.25 4.9375 2 8 C-0.125 8.875 -0.125 8.875 -2 9 C-0.68 7.02 0.64 5.04 2 3 C0.35 3 -1.3 3 -3 3 C-2.01 2.01 -1.02 1.02 0 0 Z " fill="#FDE1E0" transform="translate(143,65)"/>
<path d="M0 0 C0.33 1.32 0.66 2.64 1 4 C-0.875 6.625 -0.875 6.625 -3 9 C-3.33 9.66 -3.66 10.32 -4 11 C-4.66 11 -5.32 11 -6 11 C-6 11.66 -6 12.32 -6 13 C-6.66 12.67 -7.32 12.34 -8 12 C-5.36 8.04 -2.72 4.08 0 0 Z " fill="#FECECD" transform="translate(119,153)"/>
<path d="M0 0 C0.66 0 1.32 0 2 0 C2.33 0.99 2.66 1.98 3 3 C3.99 2.67 4.98 2.34 6 2 C5.67 3.98 5.34 5.96 5 8 C3.0625 7.375 3.0625 7.375 1 6 C0.25 2.875 0.25 2.875 0 0 Z " fill="#FDE1E7" transform="translate(84,150)"/>
<path d="M0 0 C0.66 0 1.32 0 2 0 C2 0.66 2 1.32 2 2 C2.66 2 3.32 2 4 2 C4.625 4.8125 4.625 4.8125 5 8 C4.01 9.485 4.01 9.485 3 11 C2.49384702 9.73160474 1.99530901 8.46016898 1.5 7.1875 C1.2215625 6.47980469 0.943125 5.77210937 0.65625 5.04296875 C0 3 0 3 0 0 Z " fill="#FBDED5" transform="translate(73,119)"/>
<path d="M0 0 C-3.75 2 -3.75 2 -6 2 C-6.33 2.66 -6.66 3.32 -7 4 C-9.475 3.01 -9.475 3.01 -12 2 C-12 1.67 -12 1.34 -12 1 C-7.53763531 -0.80619523 -4.68965706 -1.11658501 0 0 Z " fill="#EF0D05" transform="translate(133,51)"/>
<path d="M0 0 C1 2 1 2 0.3125 4.375 C-1.09398311 7.18796623 -2.67557877 8.9080209 -5 11 C-4.67 9.02 -4.34 7.04 -4 5 C-3.34 5 -2.68 5 -2 5 C-1.34 3.35 -0.68 1.7 0 0 Z " fill="#EB0D10" transform="translate(117,173)"/>
<path d="M0 0 C0.66 0.66 1.32 1.32 2 2 C0.02 4.31 -1.96 6.62 -4 9 C-4.66 8.34 -5.32 7.68 -6 7 C-5.67 6.34 -5.34 5.68 -5 5 C-4.01 5 -3.02 5 -2 5 C-1.855625 4.360625 -1.71125 3.72125 -1.5625 3.0625 C-1 1 -1 1 0 0 Z " fill="#D72A32" transform="translate(120,92)"/>
<path d="M0 0 C0.598125 0.20625 1.19625 0.4125 1.8125 0.625 C1 2.5625 1 2.5625 -0.1875 4.625 C-1.1775 4.955 -2.1675 5.285 -3.1875 5.625 C-3.8475 4.305 -4.5075 2.985 -5.1875 1.625 C-2.1875 -0.375 -2.1875 -0.375 0 0 Z " fill="#F9F6F1" transform="translate(128.1875,91.375)"/>
<path d="M0 0 C4.3890815 0.51035831 7.33708062 1.52214277 11 4 C7.52128379 5.15957207 6.65780355 4.77456651 3.3125 3.5625 C2.50425781 3.27503906 1.69601563 2.98757812 0.86328125 2.69140625 C0.24839844 2.46324219 -0.36648437 2.23507813 -1 2 C-0.67 1.34 -0.34 0.68 0 0 Z " fill="#FECBD0" transform="translate(147,61)"/>
<path d="M0 0 C0.66 0.66 1.32 1.32 2 2 C0.02 4.97 -1.96 7.94 -4 11 C-4.66 10.34 -5.32 9.68 -6 9 C-4.16172132 5.84866512 -2.24027294 2.88035092 0 0 Z " fill="#FCCABF" transform="translate(125,155)"/>
<path d="M0 0 C0.33 1.32 0.66 2.64 1 4 C0.34 4 -0.32 4 -1 4 C-1.33 5.98 -1.66 7.96 -2 10 C-3.32 9.67 -4.64 9.34 -6 9 C-4.02 6.03 -2.04 3.06 0 0 Z " fill="#D32A29" transform="translate(154,116)"/>
<path d="M0 0 C1.32 0.66 2.64 1.32 4 2 C3.34 3.65 2.68 5.3 2 7 C0.68 6.34 -0.64 5.68 -2 5 C-1.34 3.35 -0.68 1.7 0 0 Z " fill="#F9F6F7" transform="translate(119,98)"/>
<path d="M0 0 C0.94875 0.350625 1.8975 0.70125 2.875 1.0625 C2.875 0.4025 2.875 -0.2575 2.875 -0.9375 C3.535 -0.6075 4.195 -0.2775 4.875 0.0625 C2.895 3.0325 2.895 3.0325 0.875 6.0625 C0.6275 5.44375 0.38 4.825 0.125 4.1875 C-1.33128639 1.71181313 -2.50312506 1.11124998 -5.125 0.0625 C-3.125 -0.9375 -3.125 -0.9375 0 0 Z " fill="#CF2C2C" transform="translate(155.125,94.9375)"/>
<path d="M0 0 C0.66 0 1.32 0 2 0 C2 1.65 2 3.3 2 5 C0.68 5.33 -0.64 5.66 -2 6 C-2 2 -2 2 0 0 Z " fill="#F6F1F0" transform="translate(173,82)"/>
<path d="M0 0 C1.32 0.33 2.64 0.66 4 1 C4.33 4.3 4.66 7.6 5 11 C2.09591658 7.12788877 1.14920536 4.59682146 0 0 Z " fill="#CE2018" transform="translate(66,83)"/>
<path d="M0 0 C0.99 0.66 1.98 1.32 3 2 C0.42215154 4.64752004 -1.91648098 6.94432065 -5 9 C-5.33 7.68 -5.66 6.36 -6 5 C-4.68 5 -3.36 5 -2 5 C-1.34 3.35 -0.68 1.7 0 0 Z " fill="#F6D6CB" transform="translate(146,73)"/>
<path d="M0 0 C0.99 0 1.98 0 3 0 C3.33 0.99 3.66 1.98 4 3 C5.65 3 7.3 3 9 3 C8.01 4.485 8.01 4.485 7 6 C4.625 5.8125 4.625 5.8125 2 5 C0.6875 2.4375 0.6875 2.4375 0 0 Z " fill="#FDC4BF" transform="translate(96,185)"/>
<path d="M0 0 C1.98 0 3.96 0 6 0 C4.68 1.65 3.36 3.3 2 5 C1.01 4.67 0.02 4.34 -1 4 C-0.67 2.68 -0.34 1.36 0 0 Z " fill="#DE1421" transform="translate(121,88)"/>
<path d="M0 0 C0.61875 0.28875 1.2375 0.5775 1.875 0.875 C2.205 1.865 2.535 2.855 2.875 3.875 C-0.74826739 5.0827558 -1.76646369 4.41811128 -5.125 2.875 C-2.69803371 -0.15870787 -2.69803371 -0.15870787 0 0 Z " fill="#F1E6E9" transform="translate(167.125,80.125)"/>
<path d="M0 0 C0.66 0.33 1.32 0.66 2 1 C0.02 3.31 -1.96 5.62 -4 8 C-4.33 7.01 -4.66 6.02 -5 5 C-3.35 3.35 -1.7 1.7 0 0 Z " fill="#C8332D" transform="translate(135,77)"/>
<path d="M0 0 C2.97 1.65 5.94 3.3 9 5 C9 5.99 9 6.98 9 8 C7 8 7 8 5.0625 6.125 C4.381875 5.42375 3.70125 4.7225 3 4 C2.01 3.34 1.02 2.68 0 2 C0 1.34 0 0.68 0 0 Z " fill="#B5352C" transform="translate(155,74)"/>
<path d="M0 0 C3.3 0 6.6 0 10 0 C9.67 0.99 9.34 1.98 9 3 C2.84765625 2.4140625 2.84765625 2.4140625 1 2 C0.67 1.34 0.34 0.68 0 0 Z " fill="#D3232D" transform="translate(128,55)"/>
<path d="M0 0 C0.99 0 1.98 0 3 0 C3 0.99 3 1.98 3 3 C3.66 3.33 4.32 3.66 5 4 C2.36 4 -0.28 4 -3 4 C-3.33 3.34 -3.66 2.68 -4 2 C-2.68 2 -1.36 2 0 2 C0 1.34 0 0.68 0 0 Z " fill="#ED0D12" transform="translate(140,54)"/>
<path d="M0 0 C3.875 4.75 3.875 4.75 5 7 C4.34 7 3.68 7 3 7 C2.67 7.66 2.34 8.32 2 9 C0 7 0 7 -0.125 3.375 C-0.08375 2.26125 -0.0425 1.1475 0 0 Z " fill="#E8C9C0" transform="translate(105,168)"/>
<path d="M0 0 C0.66 0.33 1.32 0.66 2 1 C2 2.32 2 3.64 2 5 C1.01 5.33 0.02 5.66 -1 6 C-1.66 5.67 -2.32 5.34 -3 5 C-2.625 3.0625 -2.625 3.0625 -2 1 C-1.34 0.67 -0.68 0.34 0 0 Z " fill="#EB0E07" transform="translate(155,119)"/>
<path d="M0 0 C0.33 0.66 0.66 1.32 1 2 C0.0625 4.625 0.0625 4.625 -1 7 C-1.66 7 -2.32 7 -3 7 C-3.33 8.32 -3.66 9.64 -4 11 C-4.66 10.34 -5.32 9.68 -6 9 C-4.02 6.03 -2.04 3.06 0 0 Z " fill="#F7CDC8" transform="translate(161,92)"/>
<path d="M0 0 C0.33 1.32 0.66 2.64 1 4 C-0.98 5.32 -2.96 6.64 -5 8 C-5.66 7.67 -6.32 7.34 -7 7 C-4.69 4.69 -2.38 2.38 0 0 Z " fill="#FDDDDA" transform="translate(118,98)"/>
<path d="M0 0 C-1.28913487 0.67154933 -2.58140204 1.33708859 -3.875 2 C-4.59429687 2.37125 -5.31359375 2.7425 -6.0546875 3.125 C-8 4 -8 4 -10 4 C-9 1 -9 1 -6.6875 -0.25 C-3.83402593 -1.04631835 -2.75197675 -0.8214856 0 0 Z " fill="#FDD5D6" transform="translate(152,95)"/>
<path d="M0 0 C1.32 0 2.64 0 4 0 C4.33 1.32 4.66 2.64 5 4 C4.01 4.33 3.02 4.66 2 5 C1.34 4.67 0.68 4.34 0 4 C0 2.68 0 1.36 0 0 Z " fill="#F2090F" transform="translate(63,68)"/>
<path d="M0 0 C2.4375 0.8125 2.4375 0.8125 5 2 C5.33 2.99 5.66 3.98 6 5 C3.69 4.67 1.38 4.34 -1 4 C-0.67 2.68 -0.34 1.36 0 0 Z " fill="#FCF7FB" transform="translate(69,45)"/>
<path d="M0 0 C1.32 0.33 2.64 0.66 4 1 C4.33 3.31 4.66 5.62 5 8 C4.01 8 3.02 8 2 8 C1.34 5.36 0.68 2.72 0 0 Z " fill="#E11E2B" transform="translate(41,38)"/>
<path d="M0 0 C1.485 0.99 1.485 0.99 3 2 C2.67 3.65 2.34 5.3 2 7 C1.67 6.34 1.34 5.68 1 5 C0.34 5 -0.32 5 -1 5 C-0.67 3.35 -0.34 1.7 0 0 Z " fill="#F8FBF5" transform="translate(93,167)"/>
<path d="M0 0 C0.99 0.33 1.98 0.66 3 1 C1.02 3.31 -0.96 5.62 -3 8 C-3.33 7.01 -3.66 6.02 -4 5 C-2.68 4.34 -1.36 3.68 0 3 C0 2.01 0 1.02 0 0 Z " fill="#FACACF" transform="translate(132,88)"/>
<path d="M0 0 C1.32 0.33 2.64 0.66 4 1 C3.34 1 2.68 1 2 1 C1.67 1.99 1.34 2.98 1 4 C-2.0625 5.1875 -2.0625 5.1875 -5 6 C-5 5.34 -5 4.68 -5 4 C-4.01 4 -3.02 4 -2 4 C-2 3.34 -2 2.68 -2 2 C-1.34 2 -0.68 2 0 2 C0 1.34 0 0.68 0 0 Z " fill="#DF1422" transform="translate(141,89)"/>
<path d="M0 0 C1.32 0.66 2.64 1.32 4 2 C4 2.66 4 3.32 4 4 C1.36 4.33 -1.28 4.66 -4 5 C-2.68 4.34 -1.36 3.68 0 3 C0 2.01 0 1.02 0 0 Z " fill="#E81115" transform="translate(158,78)"/>
<path d="M0 0 C2.3125 1.5625 2.3125 1.5625 4 3 C-0.05606165 2.53199289 -3.46588679 2.12046792 -7 0 C-4.25700998 -1.37149501 -2.91518346 -0.83290956 0 0 Z " fill="#FBC7C3" transform="translate(118,60)"/>
<path d="M0 0 C0.66 0.33 1.32 0.66 2 1 C2 3.31 2 5.62 2 8 C1.01 8.33 0.02 8.66 -1 9 C-0.67 6.03 -0.34 3.06 0 0 Z " fill="#F9F9F8" transform="translate(104,140)"/>
<path d="M0 0 C1.5 1.125 1.5 1.125 3 3 C3.1875 6.1875 3.1875 6.1875 3 9 C2.34 8.67 1.68 8.34 1 8 C0.40644386 5.35139573 0.25790731 2.70802678 0 0 Z " fill="#F9FAFA" transform="translate(77,121)"/>
<path d="M0 0 C0.66 0 1.32 0 2 0 C4.1519437 3.22791555 4.20086443 4.28400809 4 8 C3.34 8 2.68 8 2 8 C0.74335022 5.09399739 0 3.20395416 0 0 Z " fill="#EF0918" transform="translate(155,116)"/>
<path d="M0 0 C0 0.66 0 1.32 0 2 C-0.66 2.66 -1.32 3.32 -2 4 C-2 4.66 -2 5.32 -2 6 C-3.32 6 -4.64 6 -6 6 C-6 3 -6 3 -4.6875 1.3125 C-3 0 -3 0 0 0 Z " fill="#F0F2EC" transform="translate(150,115)"/>
<path d="M0 0 C0.99 0.33 1.98 0.66 3 1 C2.67 1.99 2.34 2.98 2 4 C0.35 4 -1.3 4 -3 4 C-2.67 3.01 -2.34 2.02 -2 1 C-1.34 0.67 -0.68 0.34 0 0 Z " fill="#E90B14" transform="translate(167,110)"/>
<path d="M0 0 C3.00617269 3.00617269 2.59585316 5.82381598 3 10 C1.5 8.9375 1.5 8.9375 0 7 C-0.1875 3.3125 -0.1875 3.3125 0 0 Z " fill="#D9202B" transform="translate(67,106)"/>
<path d="M0 0 C0.66 0.33 1.32 0.66 2 1 C0.02 3.97 0.02 3.97 -2 7 C-4 3.25 -4 3.25 -4 1 C-2.68 1.33 -1.36 1.66 0 2 C0 1.34 0 0.68 0 0 Z " fill="#F7CECF" transform="translate(162,102)"/>
<path d="M0 0 C2.64752004 2.57784846 4.94432065 4.91648098 7 8 C3.76912579 7.44295272 1.97638863 6.66812465 0 4 C0 2.68 0 1.36 0 0 Z " fill="#D02631" transform="translate(94,100)"/>
<path d="M0 0 C2.95183101 2.95183101 3.08663988 5.95511947 4 10 C3.01 10 2.02 10 1 10 C0.67 6.7 0.34 3.4 0 0 Z " fill="#FAA9B0" transform="translate(69,92)"/>
<path d="M0 0 C2.2477975 2.05233685 3.0022242 3.00667261 4 6 C4.66 6.66 5.32 7.32 6 8 C5.01 8 4.02 8 3 8 C0.8125 5 0.8125 5 -1 2 C-0.67 1.34 -0.34 0.68 0 0 Z " fill="#F9D3CC" transform="translate(90,91)"/>
<path d="M0 0 C0 0.99 0 1.98 0 3 C-3.465 4.485 -3.465 4.485 -7 6 C-7 5.34 -7 4.68 -7 4 C-6.34 4 -5.68 4 -5 4 C-4.67 3.01 -4.34 2.02 -4 1 C-1.9375 0.3125 -1.9375 0.3125 0 0 Z " fill="#CD2123" transform="translate(150,86)"/>
<path d="M0 0 C5.75 0.75 5.75 0.75 8 3 C7.34 3.66 6.68 4.32 6 5 C3.98079663 3.69593116 1.98075027 2.36176581 0 1 C0 0.67 0 0.34 0 0 Z " fill="#FBD5D0" transform="translate(158,75)"/>
<path d="M0 0 C0.66 0.33 1.32 0.66 2 1 C0.515 3.475 0.515 3.475 -1 6 C-1.99 5.67 -2.98 5.34 -4 5 C-4 4.01 -4 3.02 -4 2 C-2.125 0.9375 -2.125 0.9375 0 0 Z " fill="#FAF7FB" transform="translate(145,72)"/>
<path d="M0 0 C2.97 1.65 5.94 3.3 9 5 C8.01 5.495 8.01 5.495 7 6 C4.64018187 5.06421005 2.30368736 4.06652192 0 3 C0 2.01 0 1.02 0 0 Z " fill="#FBC7C8" transform="translate(158,66)"/>
<path d="M0 0 C0.99 0.33 1.98 0.66 3 1 C4.4158649 3.91038896 5.29922267 6.846502 6 10 C2.65756352 8.10595266 2.02002851 7.05908409 0.75 3.3125 C0.5025 2.219375 0.255 1.12625 0 0 Z " fill="#D81D1B" transform="translate(74,62)"/>
<path d="M0 0 C0.99 0 1.98 0 3 0 C2.67 1.65 2.34 3.3 2 5 C0.02 5 -1.96 5 -4 5 C-2.68 4.67 -1.36 4.34 0 4 C-0.33 3.01 -0.66 2.02 -1 1 C-0.67 0.67 -0.34 0.34 0 0 Z " fill="#F4E0E0" transform="translate(111,55)"/>
<path d="M0 0 C2.97 0.33 5.94 0.66 9 1 C9 1.66 9 2.32 9 3 C2.84765625 2.4140625 2.84765625 2.4140625 1 2 C0.67 1.34 0.34 0.68 0 0 Z " fill="#C33333" transform="translate(62,39)"/>
<path d="M0 0 C0.99 0 1.98 0 3 0 C3 1.65 3 3.3 3 5 C2.01 5.33 1.02 5.66 0 6 C0 4.02 0 2.04 0 0 Z " fill="#E7110D" transform="translate(133,116)"/>
<path d="M0 0 C1.32 0.33 2.64 0.66 4 1 C4 1.66 4 2.32 4 3 C4.66 3 5.32 3 6 3 C6 3.99 6 4.98 6 6 C5.34 6 4.68 6 4 6 C4 5.34 4 4.68 4 4 C2.68 3.67 1.36 3.34 0 3 C0 2.01 0 1.02 0 0 Z " fill="#EFE9EE" transform="translate(106,107)"/>
<path d="M0 0 C1.65 1.32 3.3 2.64 5 4 C4.67 4.99 4.34 5.98 4 7 C2 5.1875 2 5.1875 0 3 C0 2.01 0 1.02 0 0 Z " fill="#F5D6DC" transform="translate(81,81)"/>
<path d="M0 0 C0 3.20395416 -0.74335022 5.09399739 -2 8 C-2.99 7.67 -3.98 7.34 -5 7 C-3.70700306 4.11562221 -2.34058637 2.12780579 0 0 Z " fill="#F7CFD2" transform="translate(140,74)"/>
<path d="M0 0 C1.98 1.65 3.96 3.3 6 5 C4.02 5.99 4.02 5.99 2 7 C1.34 4.69 0.68 2.38 0 0 Z " fill="#B13F3F" transform="translate(56,55)"/>
<path d="M0 0 C2.475 0.495 2.475 0.495 5 1 C5 2.32 5 3.64 5 5 C4.34 5 3.68 5 3 5 C3 4.34 3 3.68 3 3 C2.01 2.67 1.02 2.34 0 2 C0 1.34 0 0.68 0 0 Z " fill="#EF0B16" transform="translate(90,36)"/>
</svg>
